<svg width="18" height="18" viewBox="0 0 18 18" fill="none" xmlns="http://www.w3.org/2000/svg">
<path d="M7.30847 4.21986C7.95054 2.61918 8.27158 1.81883 8.79316 1.70791C8.9303 1.67874 9.07205 1.67874 9.20919 1.70791C9.73077 1.81883 10.0518 2.61918 10.6939 4.21986C11.059 5.13014 11.2416 5.58528 11.5832 5.89485C11.679 5.98168 11.783 6.05901 11.8938 6.12576C12.2886 6.36374 12.7815 6.40788 13.7673 6.49617C15.4361 6.64562 16.2704 6.72034 16.5252 7.19609C16.578 7.29462 16.6139 7.4013 16.6314 7.51169C16.7159 8.04472 16.1025 8.60278 14.8757 9.7189L14.535 10.0288C13.9615 10.5506 13.6747 10.8115 13.5088 11.1372C13.4093 11.3325 13.3426 11.5428 13.3113 11.7598C13.2592 12.1215 13.3432 12.5 13.5111 13.2569L13.5712 13.5274C13.8723 14.8849 14.0229 15.5637 13.835 15.8973C13.6661 16.197 13.355 16.3889 13.0114 16.4053C12.6289 16.4236 12.0899 15.9844 11.012 15.106C10.3017 14.5273 9.94664 14.2379 9.55243 14.1249C9.19219 14.0216 8.81016 14.0216 8.44991 14.1249C8.0557 14.2379 7.7006 14.5273 6.99039 15.106C5.91241 15.9844 5.37343 16.4236 4.99091 16.4053C4.64731 16.3889 4.33626 16.197 4.16739 15.8973C3.9794 15.5637 4.13 14.8849 4.4312 13.5274L4.4912 13.2569C4.65916 12.5 4.74313 12.1215 4.69102 11.7598C4.65976 11.5428 4.59304 11.3325 4.49354 11.1372C4.32767 10.8115 4.0409 10.5506 3.46735 10.0288L3.12668 9.7189C1.89989 8.60278 1.2865 8.04472 1.37097 7.51169C1.38846 7.4013 1.42434 7.29462 1.47711 7.19608C1.73191 6.72034 2.56629 6.64562 4.23506 6.49617C5.22084 6.40788 5.71373 6.36374 6.10857 6.12576C6.21932 6.05901 6.32333 5.98168 6.41915 5.89485C6.76076 5.58528 6.94333 5.13014 7.30847 4.21986Z" fill="#1C1C1E" stroke="#1C1C1E" stroke-width="2"/>
</svg>
