<svg width="25" height="8" viewBox="0 0 25 8" fill="none" xmlns="http://www.w3.org/2000/svg">
<path d="M9.75717 0.260336L6.61556 7.75687H4.56506L3.02016 1.77482C2.92505 1.40591 2.84377 1.27166 2.55858 1.11501C2.09142 0.862446 1.323 0.625539 0.644531 0.477976L0.692016 0.260383H3.99103C4.41178 0.260383 4.79006 0.541023 4.88517 1.02482L5.70206 5.36366L7.71975 0.260383L9.75717 0.260336ZM17.789 5.30821C17.7981 3.33074 15.0528 3.22312 15.0725 2.33845C15.0779 2.0684 15.3338 1.78265 15.8943 1.71051C16.1727 1.67348 16.9387 1.64634 17.8068 2.04491L18.1471 0.455945C17.68 0.286398 17.0796 0.124023 16.3333 0.124023C14.4166 0.124023 13.0673 1.14351 13.056 2.60221C13.0434 3.6809 14.0186 4.28287 14.7542 4.64212C15.5096 5.00971 15.7621 5.24441 15.7595 5.57409C15.7545 6.07724 15.1568 6.29713 14.5993 6.30702C13.624 6.32221 13.0584 6.04349 12.6067 5.83312L12.2556 7.4767C12.708 7.68444 13.5458 7.86482 14.4128 7.87546C16.4499 7.87537 17.7826 6.86676 17.789 5.30821ZM22.8505 7.75691H24.6445L23.0791 0.260383H21.423C21.0509 0.260383 20.7371 0.477414 20.5973 0.809899L17.6891 7.75691H19.7247L20.1287 6.63735H22.617L22.8505 7.75691ZM20.6866 5.10084L21.7078 2.28599L22.2953 5.10084H20.6866ZM12.5285 0.260336L10.924 7.75687H8.98434L10.5893 0.260336H12.5285Z" fill="#1A2ADF"/>
</svg>
