<svg width="47" height="56" viewBox="0 0 47 56" fill="none" xmlns="http://www.w3.org/2000/svg">
<path fill-rule="evenodd" clip-rule="evenodd" d="M17.8366 1.92955C21.4026 0.146532 25.6 0.146532 29.1661 1.92955L42.7808 8.73696C45.2653 9.97917 46.8346 12.5184 46.8346 15.2961V35.4213C46.8346 39.7887 44.5848 43.8479 40.8813 46.1626L27.388 54.5959C25.0101 56.0821 21.9925 56.0821 19.6146 54.5959L6.1213 46.1626C2.41781 43.8479 0.167969 39.7887 0.167969 35.4213V15.2961C0.167969 12.5184 1.73733 9.97917 4.22173 8.73696L17.8366 1.92955ZM32.9154 24.0807C33.6965 23.2997 33.6965 22.0334 32.9154 21.2524C32.1344 20.4713 30.8682 20.4713 30.0872 21.2524L20.8346 30.5047L16.9155 26.5858C16.1345 25.8047 14.8681 25.8047 14.0871 26.5858C13.306 27.3669 13.306 28.633 14.0871 29.4141L19.4205 34.7474C19.7954 35.1226 20.3042 35.3333 20.8346 35.3333C21.365 35.3333 21.8738 35.1226 22.2488 34.7474L32.9154 24.0807Z" fill="#2CB6AA"/>
</svg>
