<svg width="42" height="32" viewBox="0 0 42 32" fill="none" xmlns="http://www.w3.org/2000/svg">
<path d="M30.0674 16.6933H38.6008C38.6008 21.8986 35.4754 26.3893 31.0061 28.384L32.3074 31.3066C37.9021 28.8213 41.8008 23.2106 41.8008 16.6933V4.95998C41.8008 2.60318 39.8904 0.693308 37.5341 0.693308H25.8008V12.4266C25.8008 14.7834 27.7112 16.6933 30.0674 16.6933ZM4.46745 16.6933H13.0008C13.0008 21.8986 9.87545 26.3893 5.40612 28.384L6.70745 31.3066C12.3021 28.8213 16.2008 23.2106 16.2008 16.6933V4.95998C16.2008 2.60318 14.2904 0.693308 11.9341 0.693308H0.200783V12.4266C0.200783 14.7834 2.11118 16.6933 4.46745 16.6933Z" fill="#333F4F"/>
</svg>
