<svg width="48" height="48" viewBox="0 0 48 48" fill="none" xmlns="http://www.w3.org/2000/svg">
<path d="M33.0674 24.6933H41.6008C41.6008 29.8986 38.4754 34.3893 34.0061 36.384L35.3074 39.3066C40.9021 36.8213 44.8008 31.2106 44.8008 24.6933V12.96C44.8008 10.6032 42.8904 8.69331 40.5341 8.69331H28.8008V20.4266C28.8008 22.7834 30.7112 24.6933 33.0674 24.6933ZM7.46745 24.6933H16.0008C16.0008 29.8986 12.8754 34.3893 8.40612 36.384L9.70745 39.3066C15.3021 36.8213 19.2008 31.2106 19.2008 24.6933V12.96C19.2008 10.6032 17.2904 8.69331 14.9341 8.69331H3.20078V20.4266C3.20078 22.7834 5.11118 24.6933 7.46745 24.6933Z" fill="#333F4F"/>
</svg>
