<svg width="61" height="57" viewBox="0 0 61 57" fill="none" xmlns="http://www.w3.org/2000/svg">
<path d="M26.1771 39.2253L32.4344 33.6462L35.0923 35.7537L30.213 43.3708L26.1771 39.2253ZM36.1686 36.3907L30.8406 44.7083C30.7378 44.8688 30.5671 44.9737 30.3775 44.9929C30.3564 44.9951 30.3353 44.9961 30.3144 44.9961C30.1465 44.9961 29.9847 44.9286 29.8665 44.8069L28.759 43.6693L27.7892 45.1408L28.5314 51.3298H32.927L38.724 37.4113C37.8989 37.0871 37.0501 36.7508 36.1686 36.3907ZM20.6809 44.8071C20.5479 44.9437 20.3601 45.0119 20.17 44.9929C19.9802 44.9737 19.8097 44.8688 19.7069 44.7083L14.3787 36.3907C13.4972 36.7509 12.6486 37.0871 11.8233 37.4113L17.6203 51.3298H22.016L22.7581 45.1408L21.7885 43.6693L20.6809 44.8071ZM12.4786 14.8829C12.4106 14.8962 12.3361 14.9272 12.2527 15.0614C12.0213 15.4343 12.3391 16.6294 12.5097 17.2716C12.6006 17.6132 12.6863 17.9359 12.7285 18.1999L12.7322 18.2234C12.8492 18.9549 12.9596 19.6457 13.1213 20.1653C13.3105 20.7729 13.4768 20.8307 13.4768 20.8307C13.4792 20.8312 13.7648 20.8866 14.5395 20.1312C14.1477 18.2976 13.9337 16.5754 13.822 15.4146C13.002 14.8639 12.6132 14.8561 12.4786 14.8829ZM0.523438 47.4401V51.3298H16.2663L10.6597 37.8687C4.3217 40.3636 0.523438 42.0476 0.523438 47.4401ZM43.3638 45.0574C42.5715 44.2654 42.2849 43.2984 42.4874 42.1013C42.619 41.3242 42.326 40.6169 41.6835 40.1607C40.8661 39.5802 40.3968 38.8741 40.2576 38.0148C40.1344 37.9661 40.0126 37.9178 39.8876 37.8686L34.281 51.3298H46.3084L46.5743 45.9063C46.4904 45.9106 46.4057 45.9191 46.3199 45.9336C45.1225 46.1368 44.1559 45.8499 43.3638 45.0574ZM23.9606 45.6129L23.2751 51.3297H27.2726L26.5871 45.6129H23.9606ZM23.7427 44.3629H26.8051L27.8665 42.7523L25.274 40.0893L22.6814 42.7523L23.7427 44.3629ZM53.6805 46.7373C52.9774 47.7272 52.091 48.2083 50.9705 48.2083C49.85 48.2083 48.9637 47.7272 48.2605 46.7374C48.1292 46.5526 47.9765 46.3976 47.8079 46.2723L47.2929 56.7789L50.5703 54.0463C50.8022 53.8529 51.1389 53.8529 51.3708 54.0463L54.6483 56.7791L54.1333 46.2724C53.9647 46.3976 53.8119 46.5524 53.6805 46.7373ZM50.9705 34.7787C49.4973 34.7787 48.2987 35.9772 48.2987 37.4504C48.2987 38.9237 49.4973 40.1223 50.9705 40.1223C52.4438 40.1223 53.6424 38.9237 53.6424 37.4504C53.6424 35.9772 52.4438 34.7787 50.9705 34.7787ZM24.3706 39.2252L18.1133 33.6461L15.4555 35.7537L20.3349 43.3707L24.3706 39.2252ZM23.3631 30.9721C23.7781 31.1354 23.9762 31.1036 24.3709 31.0403C24.6045 31.0028 24.8951 30.9563 25.2672 30.9523H25.2806C25.6527 30.9563 25.9434 31.0028 26.1769 31.0403C26.5716 31.1033 26.7697 31.1352 27.1847 30.9721C28.034 30.6382 29.823 29.0224 31.9701 26.6502C34.5246 23.8283 35.3173 17.1138 35.5038 15.0537C35.4765 14.3912 35.2508 13.2654 34.742 12.2392C34.5379 12.5581 34.2524 12.9131 33.8531 13.2872C33.6856 13.4438 33.4459 13.4969 33.2279 13.4238C33.0103 13.3512 32.85 13.1651 32.8103 12.9389C32.5561 11.4889 31.9165 10.2491 31.2271 9.78082C30.1334 11.4859 27.7669 11.3381 25.2745 11.1819C21.6405 10.9551 17.5283 10.6981 15.0546 15.1689C15.2595 17.3534 16.069 23.8789 18.5775 26.6502C20.7254 29.0227 22.5144 30.6384 23.3631 30.9721ZM60.4783 37.4506C60.4783 38.1654 60.1958 38.6712 59.5336 39.1414C58.4999 39.8756 58.0094 41.0601 58.2212 42.3099C58.3569 43.1106 58.1991 43.6678 57.6936 44.1734C57.1882 44.6789 56.6307 44.8368 55.8298 44.7012C54.5807 44.4901 53.3954 44.9799 52.6614 46.0136C52.1909 46.6758 51.6853 46.9583 50.9705 46.9583C50.2558 46.9583 49.75 46.6758 49.2797 46.0137C48.6582 45.1386 47.7142 44.6527 46.6803 44.6527C46.4932 44.6527 46.3028 44.6686 46.1112 44.7011C45.3107 44.8367 44.7532 44.6791 44.2477 44.1734C43.7423 43.6682 43.5844 43.1108 43.7199 42.3098C43.9317 41.0601 43.4412 39.8756 42.4075 39.1414C41.7453 38.6711 41.4628 38.1653 41.4628 37.4506C41.4628 36.7358 41.7453 36.2299 42.4075 35.7597C43.441 35.0257 43.9317 33.8412 43.72 32.5911C43.5842 31.7906 43.742 31.2333 44.2477 30.7277C44.753 30.2222 45.3109 30.0648 46.1113 30.1999C47.3614 30.4114 48.5457 29.9212 49.2797 28.8876C49.75 28.2253 50.2558 27.9428 50.9705 27.9428C51.6853 27.9428 52.1912 28.2253 52.6614 28.8876C53.3954 29.9211 54.5798 30.4114 55.8299 30.1999C56.6304 30.0643 57.1878 30.2221 57.6934 30.7277C58.1988 31.2329 58.3567 31.7903 58.2212 32.5912C58.0094 33.8411 58.4999 35.0256 59.5336 35.7597C60.1958 36.2301 60.4783 36.7358 60.4783 37.4506ZM54.8924 37.4506C54.8924 35.2881 53.133 33.5288 50.9705 33.5288C48.808 33.5288 47.0487 35.2881 47.0487 37.4506C47.0487 39.6131 48.808 41.3724 50.9705 41.3724C53.133 41.3724 54.8924 39.6131 54.8924 37.4506ZM25.3522 9.93444C28.1775 10.1112 29.8024 10.1432 30.3525 8.75419C30.4636 8.47357 30.7598 8.31257 31.0556 8.37144C32.3785 8.63494 33.2599 10.0362 33.7341 11.4912C33.9629 11.1093 33.9958 10.8578 33.9998 10.8154C34.0241 10.5614 34.2004 10.3477 34.4451 10.2756C34.6896 10.2034 34.9538 10.2872 35.1123 10.4874C35.6594 11.1796 36.0656 12.0292 36.3375 12.8606C38.3008 7.56144 37.8345 5.23319 37.0269 4.21132C35.8521 2.72457 33.3274 3.15444 32.1141 3.36094C32.0019 3.37994 31.9006 3.39719 31.8126 3.41094C31.5386 3.45344 31.2695 3.31094 31.1511 3.06019C30.3595 1.38344 27.7946 0.455566 24.8767 0.455566C23.0622 0.455566 21.1114 0.814316 19.3654 1.57494C17.0017 2.60457 11.9948 5.78919 14.5406 13.6281C17.4498 9.44019 21.9765 9.72344 25.3522 9.93444ZM30.5063 29.9679C29.4431 30.9836 28.399 31.8377 27.6419 32.1354C26.9091 32.4234 26.4364 32.3478 25.979 32.2746C25.768 32.2407 25.5499 32.2058 25.2736 32.2023C24.9974 32.2058 24.7791 32.2408 24.5681 32.2746C24.3605 32.3078 24.1497 32.3414 23.913 32.3414C23.6281 32.3414 23.3055 32.2927 22.9054 32.1354C22.1485 31.8379 21.1042 30.9834 20.0409 29.9676C19.9194 31.2929 19.7484 32.3878 19.5297 33.2347L25.2735 38.3559L31.0174 33.2347C30.7988 32.3882 30.6278 31.2941 30.5063 29.9679ZM36.0079 20.1313C36.782 20.8863 37.0674 20.8317 37.0704 20.8308C37.0704 20.8308 37.2369 20.7729 37.4259 20.1654C37.5876 19.6458 37.6981 18.9548 37.815 18.2236L37.8188 18.1998C37.861 17.9361 37.9468 17.6133 38.0376 17.2716C38.2083 16.6294 38.5259 15.4344 38.2946 15.0614C38.2111 14.9268 38.1338 14.8957 38.0689 14.8829C37.9335 14.8558 37.545 14.8641 36.7255 15.4144C36.6136 16.5753 36.3996 18.2976 36.0079 20.1313Z" fill="#2CB6AA"/>
</svg>
