<svg width="65" height="64" viewBox="0 0 65 64" fill="none" xmlns="http://www.w3.org/2000/svg">
<path d="M48.5 34C40.78 34 34.5 40.28 34.5 48C34.5 55.72 40.78 62 48.5 62C56.22 62 62.5 55.72 62.5 48C62.5 40.28 56.22 34 48.5 34ZM47.16 46H49.82C52.4 46 54.48 48.1 54.48 50.66C54.48 53 52.74 54.94 50.48 55.26V56C50.48 57.1 49.58 58 48.48 58C47.38 58 46.48 57.1 46.48 56V55.34H44.48C43.38 55.34 42.48 54.44 42.48 53.34C42.48 52.24 43.38 51.34 44.48 51.34H49.82C50.18 51.34 50.48 51.04 50.48 50.68C50.48 50.32 50.18 50.02 49.82 50.02H47.16C44.58 50.02 42.5 47.92 42.5 45.36C42.5 43.02 44.24 41.08 46.5 40.76V40.02C46.5 38.92 47.4 38.02 48.5 38.02C49.6 38.02 50.5 38.92 50.5 40.02V40.68H52.5C53.6 40.68 54.5 41.58 54.5 42.68C54.5 43.78 53.6 44.68 52.5 44.68H47.16C46.8 44.68 46.5 44.98 46.5 45.34C46.5 45.7 46.8 46 47.16 46Z" fill="#2CB6AA"/>
<path d="M30.5 12C20.58 12 12.5 20.08 12.5 30C12.5 39.92 20.58 48 30.5 48C30.5 38.08 38.58 30 48.5 30C48.5 20.08 40.42 12 30.5 12ZM32.5 30C32.5 30.66 32.16 31.3 31.6 31.66L22.6 37.66C22.26 37.88 21.88 38 21.5 38C20.86 38 20.22 37.68 19.84 37.1C19.22 36.18 19.48 34.94 20.4 34.32L28.5 28.92V21C28.5 19.9 29.4 19 30.5 19C31.6 19 32.5 19.9 32.5 21V30Z" fill="#2CB6AA"/>
<path d="M30.5 52C18.36 52 8.5 42.14 8.5 30C8.5 17.86 18.36 8 30.5 8C42.64 8 52.5 17.86 52.5 30C52.5 30.16 52.48 30.3 52.48 30.46C54.6 30.94 56.58 31.8 58.34 32.94C58.44 31.98 58.5 30.98 58.5 30C58.5 14.56 45.94 2 30.5 2C15.06 2 2.5 14.56 2.5 30C2.5 45.44 15.06 58 30.5 58C31.5 58 32.48 57.94 33.44 57.84C32.28 56.08 31.44 54.1 30.96 51.98C30.8 51.98 30.66 52 30.5 52Z" fill="#2CB6AA"/>
</svg>
