<svg width="32" height="32" viewBox="0 0 32 32" fill="none" xmlns="http://www.w3.org/2000/svg">
<path fill-rule="evenodd" clip-rule="evenodd" d="M19.6881 5.74005C18.5819 5.15968 17.3253 4.83325 15.9993 4.83325C11.9492 4.83325 8.54678 7.87858 8.09952 11.9039L7.76378 14.9255C7.69475 15.5469 7.66273 15.832 7.61022 16.1094C7.48125 16.7907 7.25843 17.4508 6.94811 18.0709C6.82175 18.3234 6.67443 18.5696 6.3528 19.1057L5.38799 20.7137L5.36632 20.7498C4.98187 21.3905 4.66409 21.9201 4.4843 22.3536C4.29978 22.7985 4.20095 23.281 4.46023 23.739C4.71951 24.1969 5.1841 24.3604 5.66057 24.4311C6.12479 24.5 6.74242 24.4999 7.48964 24.4999H7.53172H24.467H24.509C25.2563 24.4999 25.8739 24.5 26.3381 24.4311C26.8146 24.3604 27.2792 24.1969 27.5384 23.739C27.7977 23.281 27.6989 22.7985 27.5144 22.3536C27.3346 21.9201 27.0168 21.3905 26.6323 20.7498L26.6107 20.7137L25.6459 19.1057C25.3242 18.5696 25.1769 18.3234 25.0506 18.0709C24.7402 17.4508 24.5174 16.7907 24.3885 16.1094C24.3359 15.832 24.3039 15.5469 24.2349 14.9255L24.1069 13.7732C23.7924 13.8752 23.4632 13.9447 23.1234 13.9778L23.241 15.036L23.2436 15.0595C23.3094 15.6514 23.3455 15.976 23.4059 16.2954C23.5521 17.0675 23.8046 17.8157 24.1563 18.5185C24.3017 18.8091 24.4698 19.0892 24.7762 19.5998L24.7762 19.5999L24.7884 19.6202L25.7532 21.2282C26.1648 21.9141 26.4427 22.38 26.5907 22.7367C26.7372 23.09 26.6962 23.1969 26.6682 23.2463C26.6403 23.2956 26.5698 23.3858 26.1914 23.4419C25.8094 23.4986 25.2669 23.4999 24.467 23.4999H7.53172C6.73174 23.4999 6.18927 23.4986 5.80732 23.4419C5.42892 23.3858 5.35838 23.2956 5.33043 23.2463C5.30248 23.1969 5.26147 23.09 5.40802 22.7367C5.55594 22.38 5.8339 21.9141 6.24548 21.2282L7.21029 19.6202L7.22246 19.5999C7.52886 19.0892 7.69692 18.8091 7.84238 18.5185C8.19407 17.8157 8.44661 17.0675 8.59277 16.2954C8.65323 15.976 8.68929 15.6514 8.75506 15.0595L8.75506 15.0595L8.75767 15.036L9.0934 12.0144C9.48439 8.49544 12.4588 5.83325 15.9993 5.83325C17.0548 5.83325 18.0599 6.06981 18.9612 6.49512C19.1746 6.21704 19.4185 5.96367 19.6881 5.74005ZM21.4245 6.97259C21.1223 7.13185 20.8544 7.34744 20.6347 7.6054C21.8632 8.70554 22.7019 10.241 22.9025 11.9896C23.2502 11.959 23.5788 11.8617 23.8753 11.7106C23.6212 9.83716 22.7248 8.18675 21.4245 6.97259Z" fill="#222222"/>
<path d="M12.1363 24.5412C12.3642 25.5334 12.8664 26.4103 13.565 27.0356C14.2635 27.661 15.1195 28 16 28C16.8805 28 17.7365 27.661 18.435 27.0356C19.1336 26.4103 19.6358 25.5334 19.8637 24.5412" stroke="#222222" stroke-linecap="round"/>
<ellipse cx="22.6667" cy="9.33342" rx="2.66667" ry="2.66667" fill="#FA0C00"/>
</svg>
