<svg width="48" height="48" viewBox="0 0 48 48" fill="none" xmlns="http://www.w3.org/2000/svg">
<g clip-path="url(#clip0_120_4560)">
<path fill-rule="evenodd" clip-rule="evenodd" d="M40.8864 47.8876H7.08675C6.63684 47.8876 6.24316 47.4939 6.24316 47.044C6.24316 46.566 6.63684 46.2004 7.08675 46.2004H40.8864C41.3644 46.2004 41.73 46.566 41.73 47.044C41.73 47.4939 41.3644 47.8876 40.8864 47.8876Z" fill="#585858"/>
<path fill-rule="evenodd" clip-rule="evenodd" d="M40.8864 47.8876H7.08675C6.63684 47.8876 6.24316 47.4939 6.24316 47.044C6.24316 46.566 6.63684 46.2004 7.08675 46.2004H40.8864C41.3644 46.2004 41.73 46.566 41.73 47.044C41.73 47.4939 41.3644 47.8876 40.8864 47.8876Z" fill="black" fill-opacity="0.2"/>
<path fill-rule="evenodd" clip-rule="evenodd" d="M25.7577 26.7981H22.2427C18.306 26.7981 15.0723 23.5924 15.0723 19.6557V16.422C15.0723 15.972 15.4659 15.5784 15.9159 15.5784C16.3939 15.5784 16.7594 15.972 16.7594 16.422V19.6557C16.7594 22.6645 19.234 25.1109 22.2427 25.1109H25.7577C28.7665 25.1109 31.2129 22.6645 31.2129 19.6557V16.422C31.2129 15.972 31.6065 15.5784 32.0564 15.5784C32.5345 15.5784 32.9 15.972 32.9 16.422V19.6557C32.9 23.5924 29.6944 26.7981 25.7577 26.7981Z" fill="#585858"/>
<path fill-rule="evenodd" clip-rule="evenodd" d="M25.7577 26.7981H22.2427C18.306 26.7981 15.0723 23.5924 15.0723 19.6557V16.422C15.0723 15.972 15.4659 15.5784 15.9159 15.5784C16.3939 15.5784 16.7594 15.972 16.7594 16.422V19.6557C16.7594 22.6645 19.234 25.1109 22.2427 25.1109H25.7577C28.7665 25.1109 31.2129 22.6645 31.2129 19.6557V16.422C31.2129 15.972 31.6065 15.5784 32.0564 15.5784C32.5345 15.5784 32.9 15.972 32.9 16.422V19.6557C32.9 23.5924 29.6944 26.7981 25.7577 26.7981Z" fill="black" fill-opacity="0.2"/>
<path fill-rule="evenodd" clip-rule="evenodd" d="M9.13867 38.9456V34.812C9.13867 31.1564 12.1193 28.1758 15.803 28.1758H16.4216V34.7276H15.7186C15.4374 34.7276 15.2406 34.9245 15.2406 35.1775V38.9456H9.13867ZM32.7591 38.9456V35.1775C32.7591 34.9245 32.5341 34.7276 32.281 34.7276H31.5499V28.1758H32.1967C35.8522 28.1758 38.8329 31.1564 38.8329 34.812V38.9456H32.7591ZM17.3777 28.1758H18.9524C19.1211 28.1758 19.2898 28.232 19.4304 28.3164L23.9858 31.2127L28.5693 28.3164C28.7099 28.232 28.8504 28.1758 29.0473 28.1758H30.622V34.7276H17.3777V28.1758ZM16.1685 38.9456V35.6556H31.803V38.9456H16.1685Z" fill="#585858"/>
<path fill-rule="evenodd" clip-rule="evenodd" d="M9.13867 38.9456V34.812C9.13867 31.1564 12.1193 28.1758 15.803 28.1758H16.4216V34.7276H15.7186C15.4374 34.7276 15.2406 34.9245 15.2406 35.1775V38.9456H9.13867ZM32.7591 38.9456V35.1775C32.7591 34.9245 32.5341 34.7276 32.281 34.7276H31.5499V28.1758H32.1967C35.8522 28.1758 38.8329 31.1564 38.8329 34.812V38.9456H32.7591ZM17.3777 28.1758H18.9524C19.1211 28.1758 19.2898 28.232 19.4304 28.3164L23.9858 31.2127L28.5693 28.3164C28.7099 28.232 28.8504 28.1758 29.0473 28.1758H30.622V34.7276H17.3777V28.1758ZM16.1685 38.9456V35.6556H31.803V38.9456H16.1685Z" fill="black" fill-opacity="0.2"/>
<path fill-rule="evenodd" clip-rule="evenodd" d="M18.9524 29.863C18.8681 29.863 18.8118 29.8349 18.7275 29.8349C18.2776 29.7224 18.0245 29.2444 18.137 28.7945L19.0368 25.2795C19.1493 24.8296 19.5992 24.5484 20.0491 24.689C20.499 24.8015 20.7802 25.2514 20.6677 25.7013L19.7679 29.2162C19.6554 29.6099 19.318 29.863 18.9524 29.863Z" fill="#585858"/>
<path fill-rule="evenodd" clip-rule="evenodd" d="M18.9524 29.863C18.8681 29.863 18.8118 29.8349 18.7275 29.8349C18.2776 29.7224 18.0245 29.2444 18.137 28.7945L19.0368 25.2795C19.1493 24.8296 19.5992 24.5484 20.0491 24.689C20.499 24.8015 20.7802 25.2514 20.6677 25.7013L19.7679 29.2162C19.6554 29.6099 19.318 29.863 18.9524 29.863Z" fill="black" fill-opacity="0.2"/>
<path fill-rule="evenodd" clip-rule="evenodd" d="M29.0476 29.863C28.6539 29.863 28.3165 29.6099 28.2321 29.2162L27.3323 25.7013C27.2198 25.2514 27.4729 24.8015 27.9228 24.689C28.3727 24.5484 28.8507 24.8296 28.9632 25.2795L29.863 28.7945C29.9755 29.2444 29.6943 29.7224 29.2444 29.8349C29.1882 29.8349 29.1038 29.863 29.0476 29.863Z" fill="#585858"/>
<path fill-rule="evenodd" clip-rule="evenodd" d="M29.0476 29.863C28.6539 29.863 28.3165 29.6099 28.2321 29.2162L27.3323 25.7013C27.2198 25.2514 27.4729 24.8015 27.9228 24.689C28.3727 24.5484 28.8507 24.8296 28.9632 25.2795L29.863 28.7945C29.9755 29.2444 29.6943 29.7224 29.2444 29.8349C29.1882 29.8349 29.1038 29.863 29.0476 29.863Z" fill="black" fill-opacity="0.2"/>
<path fill-rule="evenodd" clip-rule="evenodd" d="M13.3574 12.4852C13.6386 8.4079 16.1975 4.89297 19.9374 3.37451L20.3592 7.98611C20.4154 8.85782 21.1465 9.53268 22.0463 9.53268H25.955C26.8267 9.53268 27.5578 8.85782 27.6421 7.95799L28.0639 3.37451C31.8038 4.89297 34.3627 8.4079 34.6439 12.4852H13.3574Z" fill="#585858"/>
<path fill-rule="evenodd" clip-rule="evenodd" d="M13.3574 12.4852C13.6386 8.4079 16.1975 4.89297 19.9374 3.37451L20.3592 7.98611C20.4154 8.85782 21.1465 9.53268 22.0463 9.53268H25.955C26.8267 9.53268 27.5578 8.85782 27.6421 7.95799L28.0639 3.37451C31.8038 4.89297 34.3627 8.4079 34.6439 12.4852H13.3574Z" fill="black" fill-opacity="0.2"/>
<path fill-rule="evenodd" clip-rule="evenodd" d="M34.9526 17.2653H13.0194C12.5695 17.2653 12.1758 16.8998 12.1758 16.4218V14.1722C12.1758 13.7223 12.5695 13.3286 13.0194 13.3286H34.9526C35.4306 13.3286 35.7962 13.7223 35.7962 14.1722V16.4218C35.7962 16.8998 35.4306 17.2653 34.9526 17.2653Z" fill="#585858"/>
<path fill-rule="evenodd" clip-rule="evenodd" d="M34.9526 17.2653H13.0194C12.5695 17.2653 12.1758 16.8998 12.1758 16.4218V14.1722C12.1758 13.7223 12.5695 13.3286 13.0194 13.3286H34.9526C35.4306 13.3286 35.7962 13.7223 35.7962 14.1722V16.4218C35.7962 16.8998 35.4306 17.2653 34.9526 17.2653Z" fill="black" fill-opacity="0.2"/>
<path fill-rule="evenodd" clip-rule="evenodd" d="M25.9546 8.689H22.046C21.5961 8.689 21.2305 8.35157 21.2024 7.90165L20.5557 1.01237C20.5557 0.787417 20.64 0.562461 20.7806 0.393744C20.9493 0.225027 21.1743 0.112549 21.3992 0.112549H26.5732C26.8263 0.112549 27.0513 0.225027 27.1919 0.393744C27.3606 0.562461 27.4449 0.787417 27.4168 1.01237L26.7982 7.90165C26.7701 8.35157 26.4045 8.689 25.9546 8.689Z" fill="#585858"/>
<path fill-rule="evenodd" clip-rule="evenodd" d="M25.9546 8.689H22.046C21.5961 8.689 21.2305 8.35157 21.2024 7.90165L20.5557 1.01237C20.5557 0.787417 20.64 0.562461 20.7806 0.393744C20.9493 0.225027 21.1743 0.112549 21.3992 0.112549H26.5732C26.8263 0.112549 27.0513 0.225027 27.1919 0.393744C27.3606 0.562461 27.4449 0.787417 27.4168 1.01237L26.7982 7.90165C26.7701 8.35157 26.4045 8.689 25.9546 8.689Z" fill="black" fill-opacity="0.2"/>
<path fill-rule="evenodd" clip-rule="evenodd" d="M25.2515 23.8454H22.7489C22.2989 23.8454 21.9053 23.4798 21.9053 23.0018C21.9053 22.5519 22.2989 22.1582 22.7489 22.1582H25.2515C25.7014 22.1582 26.0951 22.5519 26.0951 23.0018C26.0951 23.4798 25.7014 23.8454 25.2515 23.8454Z" fill="#585858"/>
<path fill-rule="evenodd" clip-rule="evenodd" d="M25.2515 23.8454H22.7489C22.2989 23.8454 21.9053 23.4798 21.9053 23.0018C21.9053 22.5519 22.2989 22.1582 22.7489 22.1582H25.2515C25.7014 22.1582 26.0951 22.5519 26.0951 23.0018C26.0951 23.4798 25.7014 23.8454 25.2515 23.8454Z" fill="black" fill-opacity="0.2"/>
<path fill-rule="evenodd" clip-rule="evenodd" d="M3.29018 29.8348C3.12147 29.8348 2.98087 29.7786 2.84027 29.6942C1.06874 28.6257 0.0283203 26.7417 0.0283203 24.689C0.0283203 22.5237 1.18122 20.5554 3.06523 19.5431V10.4042C1.18122 9.39194 0.0283203 7.42357 0.0283203 5.25837C0.0283203 3.17753 1.06874 1.32164 2.84027 0.224979C3.09335 0.0843817 3.37454 0.0843817 3.65574 0.19686C3.90881 0.309338 4.07753 0.562413 4.10565 0.843608L4.66804 4.83658H7.11444L7.64871 0.843608C7.67683 0.562413 7.87366 0.309338 8.12674 0.19686C8.37982 0.0843817 8.68913 0.0843817 8.91409 0.224979C10.6856 1.32164 11.7542 3.17753 11.7542 5.25837C11.7542 7.42357 10.5731 9.39194 8.71725 10.4042V19.5431C10.5731 20.5554 11.7542 22.5237 11.7542 24.689C11.7542 26.7417 10.6856 28.6257 8.91409 29.6942C8.68913 29.8629 8.37982 29.8629 8.12674 29.7505C7.87366 29.6099 7.70495 29.3849 7.64871 29.1037L7.11444 25.1107H4.66804L4.10565 29.1037C4.07753 29.3849 3.90881 29.6099 3.65574 29.7505C3.51514 29.8067 3.40266 29.8348 3.29018 29.8348ZM39.5081 29.8348C39.3394 29.8348 39.1988 29.7786 39.0582 29.6942C37.2867 28.6257 36.2463 26.7417 36.2463 24.689C36.2463 22.5237 37.4273 20.5554 39.2832 19.5431V10.4042C37.4273 9.39194 36.2463 7.42357 36.2463 5.25837C36.2463 3.17753 37.2867 1.32164 39.0582 0.224979C39.3113 0.0843817 39.6206 0.0843817 39.8737 0.19686C40.1267 0.309338 40.2955 0.562413 40.3517 0.843608L40.886 4.83658H43.3324L43.8666 0.843608C43.9229 0.562413 44.0916 0.309338 44.3447 0.19686C44.5977 0.0843817 44.9071 0.0843817 45.1601 0.224979C46.9317 1.32164 47.9721 3.17753 47.9721 5.25837C47.9721 7.42357 46.7911 9.39194 44.9352 10.4042V19.5431C46.7911 20.5554 47.9721 22.5237 47.9721 24.689C47.9721 26.7417 46.9317 28.6257 45.1601 29.6942C44.9071 29.8629 44.5977 29.8629 44.3447 29.7505C44.0916 29.6099 43.9229 29.3849 43.8666 29.1037L43.3324 25.1107H40.886L40.3517 29.1037C40.2955 29.3849 40.1267 29.6099 39.8737 29.7505C39.7612 29.8067 39.6206 29.8348 39.5081 29.8348Z" fill="#585858"/>
<path fill-rule="evenodd" clip-rule="evenodd" d="M3.29018 29.8348C3.12147 29.8348 2.98087 29.7786 2.84027 29.6942C1.06874 28.6257 0.0283203 26.7417 0.0283203 24.689C0.0283203 22.5237 1.18122 20.5554 3.06523 19.5431V10.4042C1.18122 9.39194 0.0283203 7.42357 0.0283203 5.25837C0.0283203 3.17753 1.06874 1.32164 2.84027 0.224979C3.09335 0.0843817 3.37454 0.0843817 3.65574 0.19686C3.90881 0.309338 4.07753 0.562413 4.10565 0.843608L4.66804 4.83658H7.11444L7.64871 0.843608C7.67683 0.562413 7.87366 0.309338 8.12674 0.19686C8.37982 0.0843817 8.68913 0.0843817 8.91409 0.224979C10.6856 1.32164 11.7542 3.17753 11.7542 5.25837C11.7542 7.42357 10.5731 9.39194 8.71725 10.4042V19.5431C10.5731 20.5554 11.7542 22.5237 11.7542 24.689C11.7542 26.7417 10.6856 28.6257 8.91409 29.6942C8.68913 29.8629 8.37982 29.8629 8.12674 29.7505C7.87366 29.6099 7.70495 29.3849 7.64871 29.1037L7.11444 25.1107H4.66804L4.10565 29.1037C4.07753 29.3849 3.90881 29.6099 3.65574 29.7505C3.51514 29.8067 3.40266 29.8348 3.29018 29.8348ZM39.5081 29.8348C39.3394 29.8348 39.1988 29.7786 39.0582 29.6942C37.2867 28.6257 36.2463 26.7417 36.2463 24.689C36.2463 22.5237 37.4273 20.5554 39.2832 19.5431V10.4042C37.4273 9.39194 36.2463 7.42357 36.2463 5.25837C36.2463 3.17753 37.2867 1.32164 39.0582 0.224979C39.3113 0.0843817 39.6206 0.0843817 39.8737 0.19686C40.1267 0.309338 40.2955 0.562413 40.3517 0.843608L40.886 4.83658H43.3324L43.8666 0.843608C43.9229 0.562413 44.0916 0.309338 44.3447 0.19686C44.5977 0.0843817 44.9071 0.0843817 45.1601 0.224979C46.9317 1.32164 47.9721 3.17753 47.9721 5.25837C47.9721 7.42357 46.7911 9.39194 44.9352 10.4042V19.5431C46.7911 20.5554 47.9721 22.5237 47.9721 24.689C47.9721 26.7417 46.9317 28.6257 45.1601 29.6942C44.9071 29.8629 44.5977 29.8629 44.3447 29.7505C44.0916 29.6099 43.9229 29.3849 43.8666 29.1037L43.3324 25.1107H40.886L40.3517 29.1037C40.2955 29.3849 40.1267 29.6099 39.8737 29.7505C39.7612 29.8067 39.6206 29.8348 39.5081 29.8348Z" fill="black" fill-opacity="0.2"/>
<path fill-rule="evenodd" clip-rule="evenodd" d="M47.1285 44.6819H43.6979H43.6698H4.30249H4.27437H0.871906C0.393874 44.6819 0.0283203 44.2882 0.0283203 43.8383C0.0283203 43.3602 0.393874 42.9947 0.871906 42.9947H3.4589V40.6326C3.4589 40.1546 3.85257 39.7891 4.30249 39.7891H43.6698C44.1478 39.7891 44.5134 40.1546 44.5134 40.6326V42.9947H47.1285C47.6065 42.9947 47.9721 43.3602 47.9721 43.8383C47.9721 44.2882 47.6065 44.6819 47.1285 44.6819Z" fill="#585858"/>
<path fill-rule="evenodd" clip-rule="evenodd" d="M47.1285 44.6819H43.6979H43.6698H4.30249H4.27437H0.871906C0.393874 44.6819 0.0283203 44.2882 0.0283203 43.8383C0.0283203 43.3602 0.393874 42.9947 0.871906 42.9947H3.4589V40.6326C3.4589 40.1546 3.85257 39.7891 4.30249 39.7891H43.6698C44.1478 39.7891 44.5134 40.1546 44.5134 40.6326V42.9947H47.1285C47.6065 42.9947 47.9721 43.3602 47.9721 43.8383C47.9721 44.2882 47.6065 44.6819 47.1285 44.6819Z" fill="black" fill-opacity="0.2"/>
</g>
<defs>
<clipPath id="clip0_120_4560">
<rect width="48" height="48" fill="white"/>
</clipPath>
</defs>
</svg>
