<svg width="32" height="32" viewBox="0 0 32 32" fill="none" xmlns="http://www.w3.org/2000/svg">
<path fill-rule="evenodd" clip-rule="evenodd" d="M19.69 5.74005C18.5839 5.15968 17.3273 4.83325 16.0013 4.83325C11.9512 4.83325 8.54873 7.87858 8.10147 11.9039L7.76574 14.9255C7.6967 15.5469 7.66469 15.832 7.61217 16.1094C7.48321 16.7907 7.26038 17.4508 6.95006 18.0709C6.8237 18.3234 6.67638 18.5696 6.35475 19.1057L5.38994 20.7137L5.36828 20.7498L5.36827 20.7498C4.98381 21.3905 4.66604 21.9201 4.48626 22.3536C4.30173 22.7985 4.2029 23.281 4.46218 23.739C4.72146 24.1969 5.18606 24.3604 5.66252 24.4311C6.12674 24.5 6.74437 24.4999 7.49159 24.4999H7.53367H24.4689H24.511C25.2582 24.4999 25.8758 24.5 26.3401 24.4311C26.8165 24.3604 27.2811 24.1969 27.5404 23.739C27.7997 23.281 27.7008 22.7985 27.5163 22.3536C27.3365 21.9201 27.0188 21.3905 26.6343 20.7498L26.6126 20.7137L25.6478 19.1057C25.3262 18.5696 25.1789 18.3234 25.0525 18.0709C24.7422 17.4508 24.5194 16.7907 24.3904 16.1094C24.3379 15.832 24.3059 15.5469 24.2368 14.9255L24.1088 13.7732C23.7943 13.8752 23.4652 13.9447 23.1254 13.9778L23.243 15.036L23.2456 15.0595C23.3113 15.6514 23.3474 15.976 23.4079 16.2954C23.554 17.0675 23.8066 17.8157 24.1582 18.5185C24.3037 18.8091 24.4718 19.0892 24.7781 19.5998L24.7782 19.5999L24.7903 19.6202L25.7551 21.2282C26.1667 21.9141 26.4447 22.38 26.5926 22.7367C26.7392 23.09 26.6982 23.1969 26.6702 23.2463C26.6423 23.2956 26.5717 23.3858 26.1933 23.4419C25.8114 23.4986 25.2689 23.4999 24.4689 23.4999H7.53367C6.7337 23.4999 6.19123 23.4986 5.80927 23.4419C5.43087 23.3858 5.36033 23.2956 5.33238 23.2463C5.30443 23.1969 5.26342 23.09 5.40997 22.7367C5.55789 22.38 5.83585 21.9141 6.24743 21.2282L7.21224 19.6202L7.22442 19.5999C7.53081 19.0892 7.69887 18.8091 7.84433 18.5185C8.19603 17.8157 8.44856 17.0675 8.59472 16.2954C8.65518 15.976 8.69125 15.6514 8.75701 15.0595L8.75701 15.0595L8.75962 15.036L9.09536 12.0144C9.48635 8.49544 12.4607 5.83325 16.0013 5.83325C17.0567 5.83325 18.0618 6.06981 18.9632 6.49512C19.1765 6.21704 19.4205 5.96367 19.69 5.74005ZM21.4264 6.97259C21.1242 7.13185 20.8563 7.34745 20.6367 7.6054C21.8652 8.70554 22.7039 10.241 22.9044 11.9896C23.2521 11.959 23.5807 11.8617 23.8773 11.7106C23.6231 9.83716 22.7268 8.18675 21.4264 6.97259Z" fill="#222222"/>
<path d="M12.1363 24.5412C12.3642 25.5334 12.8664 26.4103 13.565 27.0356C14.2635 27.661 15.1195 28 16 28C16.8805 28 17.7365 27.661 18.435 27.0356C19.1336 26.4103 19.6358 25.5334 19.8637 24.5412" stroke="#222222" stroke-linecap="round"/>
<ellipse cx="22.6667" cy="9.33342" rx="2.66667" ry="2.66667" fill="#FA0C00"/>
</svg>
