<svg width="351" height="351" viewBox="0 0 351 351" fill="none" xmlns="http://www.w3.org/2000/svg">
<g opacity="0.1" clip-path="url(#clip0_235_3989)">
<path d="M288.593 131.52C308.951 131.028 327.343 139.382 325.026 144.928C322.71 150.474 304.809 141.839 287.82 140.997C259.881 139.593 236.223 145.419 215.093 160.653C233.486 140.997 258.828 132.222 288.593 131.52ZM217.691 204.809C233.135 221.025 244.928 239.768 254.475 259.986C258.126 267.778 261.215 276.202 266.058 283.362C267.322 285.188 272.517 286.732 271.674 280.274C270.832 273.464 266.831 263.075 265.567 259.775C255.669 237.381 237.698 218.427 217.691 204.809ZM159.425 167.392C137.873 159.179 113.935 157.424 92.173 164.233C81.8536 167.743 71.7448 172.587 62.689 180.519C52.2292 189.716 61.7764 190.628 69.9196 185.925C80.3794 179.817 93.8578 175.254 96.8062 174.342C117.234 167.813 138.224 164.865 159.425 167.392ZM92.3134 97.192C98.3506 100 111.689 106.037 115.76 108.073C139.137 120.077 146.789 130.467 159.916 149.07C155.002 127.94 142.577 110.53 123.272 100.14C114.567 95.5072 103.826 91.8568 92.8048 92.4886C89.9266 92.629 89.5756 95.9284 92.3134 97.192ZM134.153 264.619C133.451 268.199 131.345 279.431 131.766 286.311C132.187 292.91 137.171 290.102 138.154 288.066C141.804 279.852 143.349 270.797 145.665 262.232C151.632 239.979 160.267 218.708 173.184 198.982C155.072 217.234 140.12 240.189 134.153 264.619ZM223.868 70.3054C225.062 67.9186 235.521 49.456 228.993 50.6494C228.642 50.7898 228.15 51.0004 227.659 51.2812C219.937 56.3356 214.181 67.2166 210.249 76.2022C203.58 91.7164 200.492 108.915 200 124.781C206.037 105.756 214.812 88.1362 223.868 70.3054Z" fill="url(#paint0_radial_235_3989)"/>
<path d="M292.383 113.899C301.579 109.407 311.547 106.528 320.463 107.02C325.587 107.371 331.835 108.634 334.713 113.197C334.924 113.548 334.994 113.829 335.064 114.04C335.696 118.813 325.096 116.286 323.692 116.076C313.443 114.321 303.334 112.846 292.383 113.899ZM340.329 251.913C340.961 253.176 344.682 263.425 348.332 260.196C348.543 259.986 348.683 259.705 348.823 259.424C351 254.51 348.543 248.613 345.945 244.191C341.382 236.539 333.379 229.87 324.534 224.745C331.624 233.239 336.047 242.506 340.329 251.913ZM41.558 184.17C31.379 185.293 21.4106 188.101 14.1098 193.296C9.96796 196.314 5.26456 200.667 5.33476 206.072C5.33476 206.423 5.40496 206.774 5.47516 206.985C7.51096 211.407 15.0926 203.545 16.1456 202.632C23.9378 195.753 31.73 189.084 41.558 184.17ZM168.69 260.758C163.215 269.392 159.213 279.01 158.792 287.925C158.581 293.05 159.143 299.438 163.355 302.737C163.636 302.948 163.917 303.088 164.197 303.229C168.901 304.352 167.497 293.541 167.427 292.137C166.865 281.818 166.514 271.569 168.69 260.758ZM96.1736 249.666C86.0648 259.915 77.2898 271.218 73.0076 281.818C70.6208 287.925 68.585 295.507 72.1652 299.508C72.446 299.789 72.7268 299.929 72.9374 300.07C78.062 301.474 80.9402 288.627 81.4316 286.942C85.082 274.657 89.0132 262.443 96.1736 249.666ZM141.453 92.6288C136.89 80.5544 130.291 69.3224 121.726 62.0216C116.672 57.8798 109.933 53.5976 103.334 55.3526C102.913 55.493 102.492 55.6334 102.211 55.844C97.5074 59.705 109.441 66.5144 110.845 67.4972C121.726 74.798 132.256 82.2392 141.453 92.6288ZM85.7138 87.434C78.9746 78.9398 70.691 71.5688 61.916 67.9184C56.7914 65.8826 50.2628 64.1978 45.419 67.2866C45.068 67.4972 44.8574 67.7078 44.6468 67.9886C41.8388 72.341 53.2112 74.7278 54.6152 75.149C65.2154 78.1676 75.6752 81.3968 85.7138 87.434ZM235.38 290.312C236.012 292.98 236.925 303.369 242.119 301.684C242.33 301.544 242.611 301.263 242.821 300.982C246.191 295.928 244.857 288.697 243.523 283.643C240.856 273.534 234.889 264.127 228.15 255.984C231.449 267.216 233.064 278.799 235.38 290.312Z" fill="#ED6D9E"/>
<path d="M274.271 168.936C293.015 164.935 312.32 167.322 328.325 177.15C335.837 182.064 342.927 188.171 348.543 196.876C355.071 207.055 347.279 206.283 341.733 200.596C334.643 193.296 324.815 186.907 322.709 185.574C307.686 176.237 291.611 170.059 274.271 168.936ZM283.959 220.182C261.846 198.561 233.696 186.135 205.335 182.906C232.221 191.892 256.37 208.318 277.992 229.519C284.731 236.328 299.894 262.302 307.265 256.967C314.496 251.632 290.628 227.062 283.959 220.182ZM306.984 64.619C297.016 61.9514 286.556 63.1448 277.781 65.672C258.336 71.288 243.875 84.626 235.661 102.808C250.965 88.487 259.81 80.5544 283.257 74.2364C287.328 73.1132 300.596 70.235 306.563 68.9012C309.371 68.3396 309.582 65.321 306.984 64.619ZM23.3763 160.723C28.8519 158.687 40.9263 154.194 44.7171 152.931C66.7599 145.77 78.5535 147.034 99.2625 149.701C81.5721 140.786 62.1267 138.399 43.5939 144.015C35.2401 146.542 26.3949 150.895 20.3577 157.774C18.8133 159.6 20.8491 161.635 23.3763 160.723ZM174.798 131.52C176.553 115.374 176.553 97.1216 173.534 79.4312C171.709 69.2522 168.761 56.546 163.566 49.1048C163.215 48.6134 162.864 48.2624 162.583 48.0518C157.739 44.8928 163.285 66.6548 163.847 69.4628C168.41 90.1016 172.692 110.53 174.798 131.52ZM33.8361 263.355C40.5051 268.339 53.7027 243.629 59.6697 237.171C78.6939 216.953 100.035 201.158 124.043 192.523C98.6307 195.753 73.5693 207.757 54.1239 228.396C48.2271 234.924 27.1671 258.371 33.8361 263.355ZM38.6799 107.932C17.0583 108.003 -2.38706 117.48 0.210344 123.236C2.80774 128.992 21.6915 119.375 39.7329 117.971C69.4275 115.654 94.6995 121.06 117.515 136.574C97.5075 116.286 70.4103 107.792 38.6799 107.932ZM217.128 178.624C238.188 174.833 257.774 178.975 277.922 189.926C290.207 196.595 300.386 209.301 304.106 206.002C307.827 202.773 297.086 189.996 281.923 183.187C259.599 173.078 237.767 170.621 217.128 178.624ZM189.189 197.157C197.472 214.285 202.106 232.537 204.492 251.351C205.405 258.582 205.686 266.233 207.722 273.253C208.283 275.079 212.074 277.676 213.057 272.2C214.11 266.514 213.618 257.037 213.478 254.019C211.372 233.38 201.825 213.373 189.189 197.157ZM244.436 122.183C246.753 120.99 257.493 115.514 267.462 112.706C275.184 110.53 280.308 104.212 268.515 105.124C258.336 105.897 249.35 109.196 241.137 113.408C224.008 122.604 210.951 138.189 203.159 156.23C214.11 141.839 228.36 130.747 244.436 122.183ZM117.234 215.268C115.549 217.655 110.354 225.237 108.318 230.572C106.423 235.626 110.846 235.345 112.25 234.152C117.515 229.378 121.656 223.201 126.079 217.655C137.662 203.264 150.789 190.558 166.304 180.589C147.56 187.539 129.449 199.263 117.234 215.268Z" fill="url(#paint1_radial_235_3989)"/>
</g>
<defs>
<radialGradient id="paint0_radial_235_3989" cx="0" cy="0" r="1" gradientUnits="userSpaceOnUse" gradientTransform="translate(191.658 170.516) scale(126.928 126.928)">
<stop offset="0.2819" stop-color="#F5A200"/>
<stop offset="0.3808" stop-color="#F49D0E"/>
<stop offset="0.5692" stop-color="#F29034"/>
<stop offset="0.8251" stop-color="#EF7C71"/>
<stop offset="1" stop-color="#ED6D9E"/>
</radialGradient>
<radialGradient id="paint1_radial_235_3989" cx="0" cy="0" r="1" gradientUnits="userSpaceOnUse" gradientTransform="translate(175.501 161.616) scale(147.947 147.947)">
<stop offset="0.3121" stop-color="#FFE100"/>
<stop offset="1" stop-color="#F5A200"/>
</radialGradient>
<clipPath id="clip0_235_3989">
<rect width="351" height="351" fill="white"/>
</clipPath>
</defs>
</svg>
