<svg width="21" height="22" viewBox="0 0 21 22" fill="none" xmlns="http://www.w3.org/2000/svg">
<path d="M14.503 20.0883H0.778564C0.7748 20.0882 0.771075 20.0875 0.767603 20.086C0.76413 20.0846 0.760977 20.0825 0.758324 20.0798C0.755671 20.0771 0.753571 20.074 0.752143 20.0705C0.750714 20.067 0.749986 20.0633 0.75 20.0595V14.6319L7.42346 7.95825C7.42653 7.95513 7.43018 7.95265 7.43422 7.95094C7.43825 7.94924 7.44258 7.94836 7.44695 7.94834C7.45133 7.94833 7.45567 7.94918 7.45971 7.95084C7.46376 7.95251 7.46743 7.95497 7.47052 7.95807L13.5645 14.052C13.5993 14.0868 13.6406 14.1144 13.6861 14.1333C13.7316 14.1521 13.7804 14.1618 13.8296 14.1618C13.8788 14.1618 13.9276 14.1521 13.9731 14.1333C14.0186 14.1144 14.0599 14.0868 14.0947 14.052C14.1295 14.0172 14.1572 13.9758 14.176 13.9304C14.1949 13.8849 14.2046 13.8361 14.2046 13.7869C14.2046 13.7376 14.1949 13.6889 14.176 13.6434C14.1572 13.5979 14.1295 13.5565 14.0947 13.5217L12.4584 11.8854L15.4589 8.88842C15.4655 8.88309 15.4738 8.88018 15.4823 8.88018C15.4908 8.88018 15.4991 8.88309 15.5057 8.88842L19.5883 12.9747V14.9655C19.5883 15.065 19.6278 15.1604 19.6981 15.2307C19.7684 15.301 19.8638 15.3405 19.9633 15.3405C20.0627 15.3405 20.1581 15.301 20.2284 15.2307C20.2987 15.1604 20.3383 15.065 20.3383 14.9655V1.27856C20.338 1.07215 20.2559 0.874256 20.11 0.728298C19.964 0.58234 19.7661 0.500237 19.5597 0.5H0.778564C0.572139 0.500206 0.374227 0.582298 0.228263 0.728263C0.0822985 0.874227 0.000205504 1.07214 0 1.27856V20.0595C0.000198484 20.266 0.0822834 20.4639 0.228244 20.6099C0.374205 20.7559 0.57212 20.838 0.778564 20.8383H14.503C14.6025 20.8383 14.6979 20.7987 14.7682 20.7284C14.8385 20.6581 14.878 20.5627 14.878 20.4633C14.878 20.3638 14.8385 20.2684 14.7682 20.1981C14.6979 20.1278 14.6025 20.0883 14.503 20.0883ZM0.778564 1.25H19.5597C19.5673 1.25001 19.5745 1.25302 19.5799 1.25838C19.5852 1.26373 19.5882 1.27099 19.5883 1.27856V11.9139L16.036 8.3585C15.8892 8.21158 15.6901 8.12899 15.4824 8.12889C15.2747 8.12878 15.0755 8.21118 14.9286 8.35795L11.9279 11.3549L8.00079 7.42779C7.85385 7.28111 7.65471 7.19873 7.44708 7.19873C7.23946 7.19873 7.04031 7.28111 6.89337 7.42779L0.75 13.5713V1.27856C0.75001 1.27099 0.753022 1.26373 0.758377 1.25838C0.763732 1.25302 0.770991 1.25001 0.778564 1.25Z" fill="black"/>
<path d="M12.0919 7.7793C12.462 7.77934 12.8238 7.66962 13.1316 7.46401C13.4393 7.25841 13.6792 6.96616 13.8209 6.62422C13.9625 6.28228 13.9996 5.90601 13.9274 5.54299C13.8553 5.17998 13.677 4.84652 13.4153 4.58479C13.1536 4.32306 12.8202 4.14481 12.4572 4.07259C12.0942 4.00037 11.7179 4.03742 11.376 4.17905C11.034 4.32069 10.7417 4.56054 10.5361 4.86828C10.3305 5.17603 10.2207 5.53784 10.2207 5.90797C10.2213 6.40407 10.4186 6.87971 10.7693 7.23053C11.1201 7.58135 11.5958 7.7787 12.0919 7.7793ZM12.0919 4.78663C12.3136 4.78663 12.5304 4.85239 12.7148 4.97561C12.8992 5.09882 13.043 5.27395 13.1278 5.47885C13.2127 5.68375 13.2349 5.90921 13.1917 6.12673C13.1484 6.34425 13.0416 6.54405 12.8848 6.70087C12.7279 6.85769 12.5281 6.96449 12.3106 7.00776C12.0931 7.05103 11.8676 7.02882 11.6627 6.94395C11.4578 6.85908 11.2827 6.71535 11.1595 6.53095C11.0363 6.34655 10.9705 6.12975 10.9705 5.90797C10.9709 5.61068 11.0891 5.32566 11.2993 5.11545C11.5096 4.90523 11.7946 4.78698 12.0919 4.78663Z" fill="black"/>
<path d="M20.6251 18.3279H18.5784V16.281C18.5784 16.1815 18.5389 16.0862 18.4685 16.0158C18.3982 15.9455 18.3028 15.906 18.2034 15.906C18.1039 15.906 18.0085 15.9455 17.9382 16.0158C17.8679 16.0862 17.8284 16.1815 17.8284 16.281V18.3279H15.7812C15.6818 18.3279 15.5864 18.3675 15.5161 18.4378C15.4458 18.5081 15.4062 18.6035 15.4062 18.7029C15.4062 18.8024 15.4458 18.8978 15.5161 18.9681C15.5864 19.0384 15.6818 19.0779 15.7812 19.0779H17.8284V21.1249C17.8284 21.2243 17.8679 21.3197 17.9382 21.39C18.0085 21.4604 18.1039 21.4999 18.2034 21.4999C18.3028 21.4999 18.3982 21.4604 18.4685 21.39C18.5389 21.3197 18.5784 21.2243 18.5784 21.1249V19.0779H20.6251C20.7246 19.0779 20.82 19.0384 20.8903 18.9681C20.9606 18.8978 21.0001 18.8024 21.0001 18.7029C21.0001 18.6035 20.9606 18.5081 20.8903 18.4378C20.82 18.3675 20.7246 18.3279 20.6251 18.3279Z" fill="black"/>
</svg>
