<svg width="21" height="21" viewBox="0 0 21 21" fill="none" xmlns="http://www.w3.org/2000/svg">
<path d="M11.5051 0.831055C12.6301 0.834055 13.2011 0.840055 13.6941 0.854055L13.8881 0.861055C14.1121 0.869055 14.3331 0.879055 14.6001 0.891055C15.6641 0.941055 16.3901 1.10905 17.0271 1.35605C17.6871 1.61005 18.2431 1.95405 18.7991 2.50905C19.3078 3.00879 19.7013 3.61353 19.9521 4.28105C20.1991 4.91805 20.3671 5.64405 20.4171 6.70905C20.4291 6.97505 20.4391 7.19605 20.4471 7.42105L20.4531 7.61506C20.4681 8.10706 20.4741 8.67805 20.4761 9.80305L20.4771 10.5491V11.8591C20.4796 12.5885 20.4719 13.3179 20.4541 14.0471L20.4481 14.2411C20.4401 14.4661 20.4301 14.6871 20.4181 14.9531C20.3681 16.0181 20.1981 16.7431 19.9521 17.3811C19.7013 18.0486 19.3078 18.6533 18.7991 19.1531C18.2994 19.6617 17.6947 20.0552 17.0271 20.3061C16.3901 20.5531 15.6641 20.7211 14.6001 20.7711L13.8881 20.8011L13.6941 20.8071C13.2011 20.8211 12.6301 20.8281 11.5051 20.8301L10.7591 20.8311H9.45013C8.72039 20.8336 7.99065 20.826 7.26113 20.8081L7.06713 20.8021C6.82974 20.7931 6.5924 20.7827 6.35513 20.7711C5.29113 20.7211 4.56513 20.5531 3.92713 20.3061C3.25996 20.0551 2.65557 19.6616 2.15613 19.1531C1.64708 18.6534 1.25324 18.0487 1.00213 17.3811C0.755131 16.7441 0.587131 16.0181 0.537131 14.9531L0.507131 14.2411L0.502131 14.0471C0.483697 13.3179 0.475363 12.5885 0.477131 11.8591L0.477131 9.80305C0.474363 9.07366 0.481698 8.34425 0.499131 7.61506L0.506131 7.42105C0.514131 7.19605 0.524131 6.97505 0.536131 6.70905C0.586131 5.64405 0.754131 4.91905 1.00113 4.28105C1.25283 3.61325 1.64735 3.00849 2.15713 2.50905C2.65628 2.0006 3.26032 1.60713 3.92713 1.35605C4.56513 1.10905 5.29013 0.941055 6.35513 0.891055C6.62113 0.879055 6.84313 0.869055 7.06713 0.861055L7.26113 0.855055C7.99032 0.837287 8.71973 0.82962 9.44913 0.832055L11.5051 0.831055ZM10.4771 5.83105C9.15105 5.83105 7.87928 6.35784 6.9416 7.29552C6.00392 8.2332 5.47713 9.50497 5.47713 10.8311C5.47713 12.1571 6.00392 13.4289 6.9416 14.3666C7.87928 15.3043 9.15105 15.8311 10.4771 15.8311C11.8032 15.8311 13.075 15.3043 14.0127 14.3666C14.9503 13.4289 15.4771 12.1571 15.4771 10.8311C15.4771 9.50497 14.9503 8.2332 14.0127 7.29552C13.075 6.35784 11.8032 5.83105 10.4771 5.83105ZM10.4771 7.83105C10.8711 7.83099 11.2612 7.90852 11.6252 8.05923C11.9892 8.20993 12.32 8.43085 12.5986 8.70938C12.8772 8.98791 13.0983 9.31859 13.2491 9.68254C13.3999 10.0465 13.4776 10.4366 13.4776 10.8306C13.4777 11.2245 13.4002 11.6146 13.2495 11.9786C13.0988 12.3426 12.8778 12.6734 12.5993 12.952C12.3208 13.2306 11.9901 13.4517 11.6261 13.6025C11.2622 13.7533 10.8721 13.831 10.4781 13.8311C9.68248 13.8311 8.91942 13.515 8.35681 12.9524C7.7942 12.3898 7.47813 11.6267 7.47813 10.8311C7.47813 10.0354 7.7942 9.27234 8.35681 8.70973C8.91942 8.14712 9.68248 7.83105 10.4781 7.83105M15.7281 4.33105C15.3966 4.33105 15.0787 4.46275 14.8442 4.69717C14.6098 4.93159 14.4781 5.24953 14.4781 5.58105C14.4781 5.91258 14.6098 6.23052 14.8442 6.46494C15.0787 6.69936 15.3966 6.83105 15.7281 6.83105C16.0597 6.83105 16.3776 6.69936 16.612 6.46494C16.8464 6.23052 16.9781 5.91258 16.9781 5.58105C16.9781 5.24953 16.8464 4.93159 16.612 4.69717C16.3776 4.46275 16.0597 4.33105 15.7281 4.33105Z" fill="#F1F2F6"/>
</svg>
