<svg width="195" height="34" viewBox="0 0 195 34" fill="none" xmlns="http://www.w3.org/2000/svg">
<path d="M185.17 21.8626V6.1819H188.933V8.03222C189.749 6.74641 191.285 5.86829 192.728 5.86829C193.293 5.86829 193.951 5.99373 194.39 6.1819V9.06715H193.104C190.595 9.06715 188.933 10.4784 188.933 12.5796V21.8626H185.17Z" fill="#0037FF"/>
<path d="M175.175 22.3016C170.063 22.3016 166.676 18.9773 166.676 14.0222C166.676 9.06711 170.063 5.7428 175.175 5.7428C180.287 5.7428 183.674 9.06711 183.674 14.0222V14.7435L183.36 15.0571H170.502C170.847 17.5347 172.729 19.1655 175.175 19.1655C177.025 19.1655 178.75 18.0992 179.471 16.5311H183.297C182.262 19.9809 179.001 22.3016 175.175 22.3016ZM170.753 11.921H179.597C178.875 9.97659 177.276 8.87894 175.175 8.87894C173.074 8.87894 171.474 9.97659 170.753 11.921Z" fill="#0037FF"/>
<path d="M157.518 5.7428C162.473 5.7428 165.798 9.06711 165.798 14.0222C165.798 18.9773 162.473 22.3016 157.518 22.3016C155.605 22.3016 153.504 21.4235 152.312 20.1377V27.6958H148.549V6.18186H152.312V7.90674C153.504 6.62092 155.605 5.7428 157.518 5.7428ZM157.142 9.06711C154.257 9.06711 152.312 11.0429 152.312 14.0222C152.312 17.0015 154.257 18.9773 157.142 18.9773C160.09 18.9773 162.034 17.0015 162.034 14.0222C162.034 11.0429 160.09 9.06711 157.142 9.06711Z" fill="#0037FF"/>
<path d="M138.762 5.7428C143.717 5.7428 147.042 9.06711 147.042 14.0222C147.042 18.9773 143.717 22.3016 138.762 22.3016C136.849 22.3016 134.748 21.4235 133.556 20.1377V27.6958H129.793V6.18186H133.556V7.90674C134.748 6.62092 136.849 5.7428 138.762 5.7428ZM138.386 9.06711C135.501 9.06711 133.556 11.0429 133.556 14.0222C133.556 17.0015 135.501 18.9773 138.386 18.9773C141.334 18.9773 143.278 17.0015 143.278 14.0222C143.278 11.0429 141.334 9.06711 138.386 9.06711Z" fill="#0037FF"/>
<path d="M123.9 21.8626V6.18188H127.664V21.8626H123.9Z" fill="#0037FF"/>
<path d="M113.414 21.8625V6.18178H117.177V8.0321C117.993 6.74628 119.53 5.86816 120.972 5.86816C121.537 5.86816 122.195 5.99361 122.634 6.18178V9.06703H121.349C118.84 9.06703 117.177 10.4783 117.177 12.5795V21.8625H113.414Z" fill="#0037FF"/>
<path d="M105.206 21.8626V4.112H98.9961V0.348633H115.618V4.112H109.408V21.8626H105.206Z" fill="#0037FF"/>
<path d="M60.3535 21.8626V6.18186H64.1169V7.34223C65.1518 6.37003 66.8453 5.7428 68.382 5.7428C72.6786 5.7428 75.5324 8.28307 75.5324 12.1092V21.8626H71.7691V12.5482C71.7691 10.447 70.2324 9.06711 67.943 9.06711C65.6536 9.06711 64.1169 10.447 64.1169 12.5482V21.8626H60.3535Z" fill="#0037FF"/>
<path d="M54.4609 21.8626V6.18188H58.2243V21.8626H54.4609Z" fill="#0037FF"/>
<path d="M37.1465 21.8626V0.348633H40.9099V7.34223C41.9448 6.37003 43.6383 5.7428 45.175 5.7428C49.4715 5.7428 52.3254 8.28307 52.3254 12.1092V21.8626H48.562V12.5482C48.562 10.447 47.0253 9.06711 44.7359 9.06711C42.4466 9.06711 40.9099 10.447 40.9099 12.5482V21.8626H37.1465Z" fill="#0037FF"/>
<path d="M28.6841 22.3016C24.4503 22.3016 21.5336 19.9809 21.4082 16.5311H24.952C25.0775 18.0992 26.5828 19.1655 28.6841 19.1655C30.7853 19.1655 32.1965 18.3501 32.1965 17.127C32.1965 16.3743 31.2557 15.8412 28.3391 15.2767C23.7917 14.2417 22.349 13.2068 22.349 10.6038C22.349 7.6872 24.8893 5.7428 28.6841 5.7428C31.6947 5.7428 34.3291 7.37359 35.2386 9.81978L31.7888 10.6665C31.3184 9.60025 30.064 8.87894 28.6841 8.87894C27.1473 8.87894 26.1124 9.50617 26.1124 10.4156C26.1124 11.0742 26.8337 11.4819 29.0604 11.9837C34.2977 13.0814 35.9599 14.2731 35.9599 17.127C35.9599 20.2318 33.0433 22.3016 28.6841 22.3016Z" fill="#0037FF"/>
<path d="M16.1426 21.8626V6.18188H19.9059V21.8626H16.1426Z" fill="#0037FF"/>
<path d="M0 21.8626V0.348633H14.5831V4.112H4.20243V8.94166H13.454V12.705H4.20243V21.8626H0Z" fill="#0037FF"/>
<path d="M83.6849 27.7899H76.6738V23.6719L83.6849 27.7899Z" fill="#0037FF"/>
<path d="M84.7401 34C80.4436 34 77.3013 31.4911 76.7682 27.7277H80.475C80.9454 29.4839 82.6389 30.6757 84.7401 30.6757C87.594 30.6757 89.1934 28.9821 89.1934 26.0028L89.2826 19.8964C88.1222 21.0881 86.12 21.8565 84.3952 21.8565C79.6596 21.8565 76.5234 18.6262 76.5234 13.7966C76.5234 8.96692 79.6596 5.73669 84.3952 5.73669C86.12 5.73669 88.0331 6.52073 89.1934 7.71246V6.17575H92.9568V26.0028C92.9568 31.1147 90.0088 34 84.7401 34ZM84.7715 18.5322C87.4372 18.5322 89.1934 16.6505 89.1934 13.7966C89.1934 10.9427 87.4372 9.061 84.7715 9.061C82.0744 9.061 80.2868 10.9427 80.2868 13.7966C80.2868 16.6505 82.0744 18.5322 84.7715 18.5322Z" fill="#0037FF"/>
<path fillRule="evenodd" clip-rule="evenodd" d="M90.9971 6.9357C92.9124 6.9357 94.465 5.38309 94.465 3.46785C94.465 1.55261 92.9124 0 90.9971 0C89.0819 0 87.5293 1.55261 87.5293 3.46785C87.5293 5.38309 89.0819 6.9357 90.9971 6.9357ZM90.9962 5.1105C91.9034 5.1105 92.6388 4.37505 92.6388 3.46783C92.6388 2.56061 91.9034 1.82516 90.9962 1.82516C90.089 1.82516 89.3535 2.56061 89.3535 3.46783C89.3535 4.37505 90.089 5.1105 90.9962 5.1105Z" fill="#0037FF"/>
<circle cx="18.0214" cy="2.56315" r="2.26164" fill="#0037FF"/>
<circle cx="56.3183" cy="2.56315" r="2.26164" fill="#0037FF"/>
<circle cx="125.826" cy="2.56315" r="2.26164" fill="#0037FF"/>
</svg>
