<svg width="44" height="32" viewBox="0 0 44 32" fill="none" xmlns="http://www.w3.org/2000/svg">
<path d="M19.665 19.1158C18.9543 19.1158 18.376 19.6941 18.376 20.4048V27.2238H0.0634766V18.8422C0.0634766 15.4482 2.62829 12.6403 5.96532 12.2994C7.49391 15.1382 10.4943 17.0722 13.9381 17.0722C17.3819 17.0722 20.3797 15.1387 21.908 12.3005C22.9253 12.4066 23.9025 12.7486 24.7674 13.3021V18.9564C24.7674 19.0105 24.7718 19.0635 24.7783 19.1158H19.665ZM23.8764 20.2427L23.8722 24.3786L24.7164 23.6252C25.0682 23.3157 25.5937 23.3159 25.9421 23.6227L26.7892 24.3786L26.7849 20.2427H23.8765H23.8764ZM26.0535 19.1158H37.385C37.4729 19.1158 37.5471 19.0429 37.5471 18.9564V7.62497C37.5471 7.53703 37.4728 7.46287 37.385 7.46287H34.3002L34.305 12.0437C34.305 12.4033 34.1046 12.7245 33.7821 12.8824C33.7779 12.8844 33.7737 12.8864 33.7695 12.8883C33.6416 12.9471 33.5074 12.9759 33.3751 12.9759C33.1571 12.9759 32.9441 12.8978 32.7719 12.7466L31.7192 11.8072L30.6699 12.7435C30.3905 12.9891 30.0093 13.0434 29.6716 12.8883C29.6687 12.887 29.6658 12.8857 29.6629 12.8842C29.3364 12.7274 29.1336 12.4056 29.1336 12.0442L29.1383 7.46278H26.0535C25.9671 7.46278 25.8941 7.53694 25.8941 7.62487V18.9563C25.8941 19.0443 25.9657 19.1157 26.0535 19.1157V19.1158ZM30.9965 20.2427H27.9117L27.9164 24.8236C27.9164 25.1857 27.7134 25.5076 27.3867 25.6642C27.0502 25.8224 26.6579 25.7677 26.3834 25.5265L25.3307 24.5871L24.2814 25.5234C24.1069 25.6768 23.8927 25.7557 23.674 25.7558C23.5418 25.7558 23.4078 25.7268 23.2802 25.668C23.2762 25.6661 23.2721 25.6642 23.2682 25.6623C22.9455 25.5044 22.745 25.1832 22.745 24.8241L22.7497 20.2426H19.665C19.5771 20.2426 19.5029 20.3168 19.5029 20.4047V31.7362C19.5029 31.8226 19.5772 31.8955 19.665 31.8955H30.9965C31.0844 31.8955 31.1558 31.824 31.1558 31.7362V20.4047C31.1558 20.3167 31.0829 20.2426 30.9965 20.2426V20.2427ZM32.3307 10.8428L33.1778 11.5987L33.1734 7.46287H30.2651L30.2609 11.5987L31.1051 10.8454C31.4508 10.5411 31.9879 10.5411 32.3307 10.8428ZM36.6563 20.2427L36.652 24.3786L37.4963 23.6252C37.842 23.3209 38.3791 23.3209 38.7219 23.6227L39.569 24.3786L39.5648 20.2427H36.6563ZM13.938 15.9455C18.3047 15.9455 21.8573 12.3918 21.8573 8.02359C21.8573 3.6554 18.3047 0.104248 13.938 0.104248C9.57132 0.104248 6.01613 3.65691 6.01613 8.02359C6.01613 12.3903 9.56982 15.9455 13.938 15.9455ZM43.7762 20.2427H40.6914L40.6961 24.8236C40.6961 25.1857 40.4932 25.5076 40.1664 25.6642C39.83 25.8224 39.4377 25.7677 39.1631 25.5265L38.1104 24.5871L37.0612 25.5234C36.8866 25.6768 36.6724 25.7557 36.4538 25.7557C36.3215 25.7557 36.1876 25.7268 36.0599 25.668C36.0558 25.6661 36.0518 25.6642 36.0477 25.6622C35.7251 25.5043 35.5247 25.1831 35.5247 24.8241L35.5294 20.2426H32.4446C32.3567 20.2426 32.2825 20.3168 32.2825 20.4047V31.7362C32.2825 31.8226 32.3567 31.8955 32.4446 31.8955H43.7762C43.8641 31.8955 43.9356 31.824 43.9356 31.7362V20.4047C43.9356 20.3167 43.8626 20.2426 43.7762 20.2426V20.2427Z" fill="#585858"/>
<path d="M19.665 19.1158C18.9543 19.1158 18.376 19.6941 18.376 20.4048V27.2238H0.0634766V18.8422C0.0634766 15.4482 2.62829 12.6403 5.96532 12.2994C7.49391 15.1382 10.4943 17.0722 13.9381 17.0722C17.3819 17.0722 20.3797 15.1387 21.908 12.3005C22.9253 12.4066 23.9025 12.7486 24.7674 13.3021V18.9564C24.7674 19.0105 24.7718 19.0635 24.7783 19.1158H19.665ZM23.8764 20.2427L23.8722 24.3786L24.7164 23.6252C25.0682 23.3157 25.5937 23.3159 25.9421 23.6227L26.7892 24.3786L26.7849 20.2427H23.8765H23.8764ZM26.0535 19.1158H37.385C37.4729 19.1158 37.5471 19.0429 37.5471 18.9564V7.62497C37.5471 7.53703 37.4728 7.46287 37.385 7.46287H34.3002L34.305 12.0437C34.305 12.4033 34.1046 12.7245 33.7821 12.8824C33.7779 12.8844 33.7737 12.8864 33.7695 12.8883C33.6416 12.9471 33.5074 12.9759 33.3751 12.9759C33.1571 12.9759 32.9441 12.8978 32.7719 12.7466L31.7192 11.8072L30.6699 12.7435C30.3905 12.9891 30.0093 13.0434 29.6716 12.8883C29.6687 12.887 29.6658 12.8857 29.6629 12.8842C29.3364 12.7274 29.1336 12.4056 29.1336 12.0442L29.1383 7.46278H26.0535C25.9671 7.46278 25.8941 7.53694 25.8941 7.62487V18.9563C25.8941 19.0443 25.9657 19.1157 26.0535 19.1157V19.1158ZM30.9965 20.2427H27.9117L27.9164 24.8236C27.9164 25.1857 27.7134 25.5076 27.3867 25.6642C27.0502 25.8224 26.6579 25.7677 26.3834 25.5265L25.3307 24.5871L24.2814 25.5234C24.1069 25.6768 23.8927 25.7557 23.674 25.7558C23.5418 25.7558 23.4078 25.7268 23.2802 25.668C23.2762 25.6661 23.2721 25.6642 23.2682 25.6623C22.9455 25.5044 22.745 25.1832 22.745 24.8241L22.7497 20.2426H19.665C19.5771 20.2426 19.5029 20.3168 19.5029 20.4047V31.7362C19.5029 31.8226 19.5772 31.8955 19.665 31.8955H30.9965C31.0844 31.8955 31.1558 31.824 31.1558 31.7362V20.4047C31.1558 20.3167 31.0829 20.2426 30.9965 20.2426V20.2427ZM32.3307 10.8428L33.1778 11.5987L33.1734 7.46287H30.2651L30.2609 11.5987L31.1051 10.8454C31.4508 10.5411 31.9879 10.5411 32.3307 10.8428ZM36.6563 20.2427L36.652 24.3786L37.4963 23.6252C37.842 23.3209 38.3791 23.3209 38.7219 23.6227L39.569 24.3786L39.5648 20.2427H36.6563ZM13.938 15.9455C18.3047 15.9455 21.8573 12.3918 21.8573 8.02359C21.8573 3.6554 18.3047 0.104248 13.938 0.104248C9.57132 0.104248 6.01613 3.65691 6.01613 8.02359C6.01613 12.3903 9.56982 15.9455 13.938 15.9455ZM43.7762 20.2427H40.6914L40.6961 24.8236C40.6961 25.1857 40.4932 25.5076 40.1664 25.6642C39.83 25.8224 39.4377 25.7677 39.1631 25.5265L38.1104 24.5871L37.0612 25.5234C36.8866 25.6768 36.6724 25.7557 36.4538 25.7557C36.3215 25.7557 36.1876 25.7268 36.0599 25.668C36.0558 25.6661 36.0518 25.6642 36.0477 25.6622C35.7251 25.5043 35.5247 25.1831 35.5247 24.8241L35.5294 20.2426H32.4446C32.3567 20.2426 32.2825 20.3168 32.2825 20.4047V31.7362C32.2825 31.8226 32.3567 31.8955 32.4446 31.8955H43.7762C43.8641 31.8955 43.9356 31.824 43.9356 31.7362V20.4047C43.9356 20.3167 43.8626 20.2426 43.7762 20.2426V20.2427Z" fill="black" fill-opacity="0.2"/>
</svg>
