<svg width="20" height="18" viewBox="0 0 20 18" fill="none" xmlns="http://www.w3.org/2000/svg">
<path d="M18.0016 3.44007H13.6296V2.37607C13.6296 2.00477 13.4821 1.64868 13.2195 1.38612C12.957 1.12357 12.6009 0.976074 12.2296 0.976074H7.77356C7.40226 0.976074 7.04616 1.12357 6.78361 1.38612C6.52106 1.64868 6.37356 2.00477 6.37356 2.37607V3.44007H2.00156C1.63026 3.44007 1.27416 3.58757 1.01161 3.85012C0.749062 4.11268 0.601562 4.46877 0.601562 4.84007V15.6241C0.601563 15.9954 0.749062 16.3515 1.01161 16.614C1.27416 16.8766 1.63026 17.0241 2.00156 17.0241H18.0016C18.3729 17.0241 18.729 16.8766 18.9915 16.614C19.2541 16.3515 19.4016 15.9954 19.4016 15.6241V4.84007C19.4016 4.46877 19.2541 4.11268 18.9915 3.85012C18.729 3.58757 18.3729 3.44007 18.0016 3.44007ZM7.17356 2.37607C7.17356 2.21694 7.23678 2.06433 7.3493 1.95181C7.46182 1.83929 7.61443 1.77607 7.77356 1.77607H12.2296C12.3887 1.77607 12.5413 1.83929 12.6538 1.95181C12.7663 2.06433 12.8296 2.21694 12.8296 2.37607V3.44007H7.17356V2.37607ZM1.40156 4.84007C1.40156 4.68094 1.46478 4.52833 1.5773 4.41581C1.68982 4.30329 1.84243 4.24007 2.00156 4.24007H18.0016C18.1607 4.24007 18.3133 4.30329 18.4258 4.41581C18.5383 4.52833 18.6016 4.68094 18.6016 4.84007V7.38807C18.6005 8.08368 18.3237 8.75049 17.8318 9.24235C17.34 9.73422 16.6732 10.011 15.9776 10.0121H11.6436V8.77607C11.6436 8.66999 11.6014 8.56825 11.5264 8.49323C11.4514 8.41822 11.3496 8.37607 11.2436 8.37607H8.75956C8.65348 8.37607 8.55173 8.41822 8.47672 8.49323C8.4017 8.56825 8.35956 8.66999 8.35956 8.77607V10.0121H4.02556C3.32996 10.011 2.66315 9.73422 2.17128 9.24235C1.67942 8.75049 1.40262 8.08368 1.40156 7.38807V4.84007ZM10.8436 9.17607V11.6481H9.15956V9.17607H10.8436ZM18.6016 15.6241C18.6016 15.7832 18.5383 15.9358 18.4258 16.0483C18.3133 16.1609 18.1607 16.2241 18.0016 16.2241H2.00156C1.84243 16.2241 1.68982 16.1609 1.5773 16.0483C1.46478 15.9358 1.40156 15.7832 1.40156 15.6241V9.58407C1.72232 9.96844 2.1236 10.2776 2.57702 10.4898C3.03044 10.702 3.52494 10.812 4.02556 10.8121H8.35956V12.0481C8.35956 12.1542 8.4017 12.2559 8.47672 12.3309C8.55173 12.4059 8.65348 12.4481 8.75956 12.4481H11.2436C11.3496 12.4481 11.4514 12.4059 11.5264 12.3309C11.6014 12.2559 11.6436 12.1542 11.6436 12.0481V10.8121H15.9776C16.4782 10.812 16.9727 10.702 17.4261 10.4898C17.8795 10.2776 18.2808 9.96844 18.6016 9.58407V15.6241Z" fill="black"/>
</svg>
