<svg width="20" height="14" viewBox="0 0 20 14" fill="none" xmlns="http://www.w3.org/2000/svg">
<path d="M18.1616 3.38396C18.1435 3.27989 18.0849 3.18721 17.9988 3.12614C17.9126 3.06506 17.8057 3.04055 17.7016 3.05796L14.4516 3.59996C13.8196 3.16796 11.0516 1.30596 9.49156 0.897959C7.86756 0.479959 5.73756 1.39996 5.27956 1.59996H4.20156V1.19996C4.20156 1.09387 4.15942 0.992131 4.08441 0.917116C4.00939 0.842102 3.90765 0.799959 3.80156 0.799959H1.00156C0.895476 0.799959 0.793734 0.842102 0.71872 0.917116C0.643705 0.992131 0.601563 1.09387 0.601562 1.19996V8.08596C0.601563 8.19205 0.643705 8.29379 0.71872 8.3688C0.793734 8.44382 0.895476 8.48596 1.00156 8.48596H3.80156C3.90765 8.48596 4.00939 8.44382 4.08441 8.3688C4.15942 8.29379 4.20156 8.19205 4.20156 8.08596V7.77596H5.50356L6.36756 12.874C6.38375 12.9679 6.43295 13.0529 6.50628 13.1138C6.57961 13.1747 6.67227 13.2073 6.76756 13.206H6.83556L19.0676 11.126C19.12 11.1179 19.1703 11.0996 19.2156 11.0719C19.2609 11.0443 19.3002 11.0079 19.3313 10.9649C19.3624 10.9219 19.3846 10.8732 19.3967 10.8215C19.4087 10.7698 19.4104 10.7163 19.4016 10.664L18.1616 3.38396ZM16.3616 10.772L9.25156 11.972C9.07603 11.4399 8.73471 10.9781 8.27761 10.6542C7.82052 10.3303 7.27169 10.1613 6.71156 10.172L6.31556 7.79996C7.61156 8.01596 9.02956 8.70196 9.77956 9.10396C9.92929 9.18578 10.0941 9.23634 10.2639 9.25257C10.4338 9.2688 10.6052 9.25036 10.7677 9.19837C10.9302 9.14638 11.0805 9.06192 11.2094 8.95012C11.3383 8.83831 11.4431 8.7015 11.5176 8.54796C11.6606 8.59823 11.8139 8.61198 11.9636 8.58796L12.6956 8.46396C12.7092 8.46138 12.7233 8.46157 12.7369 8.46453C12.7505 8.46748 12.7634 8.47313 12.7748 8.48115C12.7861 8.48917 12.7958 8.4994 12.8031 8.51122C12.8105 8.52303 12.8154 8.53621 12.8176 8.54996L12.9076 9.07796C12.9122 9.10553 12.9058 9.13381 12.8897 9.15666C12.8736 9.17951 12.8491 9.19507 12.8216 9.19996L12.4556 9.26196L12.0896 9.32396C12.062 9.32861 12.0337 9.32218 12.0109 9.30607C11.988 9.28997 11.9724 9.26548 11.9676 9.23796C11.9607 9.18447 11.9432 9.13291 11.9159 9.08638C11.8886 9.03986 11.8522 8.99933 11.8089 8.96722C11.7656 8.93512 11.7162 8.91211 11.6638 8.89957C11.6113 8.88703 11.5569 8.88523 11.5037 8.89427C11.4506 8.90331 11.3998 8.92301 11.3544 8.95218C11.3091 8.98134 11.2701 9.01938 11.2398 9.064C11.2095 9.10862 11.1886 9.15891 11.1782 9.21183C11.1679 9.26475 11.1683 9.31922 11.1796 9.37196C11.2154 9.58266 11.3246 9.77391 11.4878 9.91188C11.6511 10.0499 11.8578 10.1257 12.0716 10.126C12.1125 10.1249 12.1532 10.1209 12.1936 10.114L12.2216 10.28C12.2378 10.3739 12.2869 10.4589 12.3603 10.5198C12.4336 10.5807 12.5263 10.6133 12.6216 10.612H12.6896C12.794 10.5943 12.8872 10.536 12.9487 10.4498C13.0101 10.3635 13.0349 10.2564 13.0176 10.152L12.9896 9.98596C13.2195 9.93939 13.4223 9.80529 13.5551 9.61197C13.688 9.41866 13.7405 9.18127 13.7016 8.94996L13.6016 8.41396C13.5614 8.17769 13.4291 7.96702 13.2338 7.82825C13.0384 7.68949 12.7959 7.63399 12.5596 7.67396L11.8296 7.79996C11.8023 7.80323 11.7747 7.79686 11.7516 7.78196C11.7294 7.7655 11.7144 7.74116 11.7096 7.71396L11.6196 7.18396C11.6171 7.17042 11.6175 7.15652 11.6206 7.14312C11.6237 7.12971 11.6295 7.11707 11.6376 7.10596C11.6455 7.09474 11.6556 7.08524 11.6673 7.07802C11.679 7.0708 11.692 7.06602 11.7056 7.06396L12.0716 6.99996L12.4356 6.93796C12.4491 6.93542 12.463 6.93572 12.4764 6.93881C12.4899 6.94191 12.5025 6.94775 12.5136 6.95596C12.5255 6.9633 12.5356 6.97321 12.5433 6.98498C12.5509 6.99674 12.5558 7.01006 12.5576 7.02396C12.5644 7.07745 12.582 7.12901 12.6092 7.17553C12.6365 7.22206 12.6729 7.26259 12.7162 7.2947C12.7595 7.3268 12.8089 7.34981 12.8614 7.36235C12.9138 7.37488 12.9682 7.37669 13.0214 7.36765C13.0746 7.35861 13.1253 7.33891 13.1707 7.30974C13.2161 7.28057 13.255 7.24254 13.2853 7.19792C13.3156 7.15329 13.3366 7.10301 13.3469 7.05009C13.3573 6.99717 13.3568 6.9427 13.3456 6.88996C13.3062 6.65858 13.1784 6.45157 12.9891 6.31273C12.7999 6.17388 12.5641 6.11407 12.3316 6.14596L12.3036 5.98196C12.2948 5.92943 12.2757 5.87915 12.2475 5.83399C12.2192 5.78882 12.1824 5.74966 12.139 5.71874C12.0957 5.68782 12.0466 5.66574 11.9947 5.65377C11.9428 5.64179 11.8891 5.64016 11.8366 5.64896C11.784 5.65776 11.7338 5.67682 11.6886 5.70505C11.6434 5.73328 11.6043 5.77013 11.5733 5.81349C11.5109 5.90107 11.4858 6.00987 11.5036 6.11596L11.5316 6.27996C11.306 6.32456 11.1062 6.45417 10.9736 6.64196C10.9451 6.6823 10.9203 6.72515 10.8996 6.76996C10.1917 6.22489 9.42 5.76818 8.60156 5.40996L15.2596 4.28196C15.4343 4.80544 15.7691 5.26081 16.2165 5.58379C16.664 5.90676 17.2017 6.08102 17.7536 6.08196H17.8016L18.1636 8.22596C17.6314 8.40122 17.1694 8.74247 16.8454 9.19963C16.5214 9.65678 16.3526 10.2058 16.3636 10.766L16.3616 10.772ZM17.6676 5.28596C17.3201 5.26771 16.985 5.15078 16.7016 4.94887C16.4182 4.74695 16.1983 4.46843 16.0676 4.14596L17.4396 3.91196L17.6676 5.28596ZM3.40156 7.68596H1.40156V1.59996H3.40156V7.68596ZM4.20156 2.39996H5.37356C5.43384 2.39991 5.49332 2.38623 5.54756 2.35996C5.56956 2.34996 7.78756 1.28396 9.29356 1.67996C10.3756 1.96596 12.2316 3.10796 13.3016 3.79996L7.10156 4.85196C7.01637 4.85187 6.93338 4.87898 6.86467 4.92934C6.79596 4.97971 6.74512 5.05069 6.71956 5.13196C6.68832 5.23327 6.69858 5.34284 6.74808 5.4366C6.79758 5.53035 6.88228 5.60062 6.98356 5.63196C7.00756 5.63196 9.29156 6.35196 10.7016 7.63196C10.7855 7.70949 10.8383 7.81494 10.8501 7.92858C10.862 8.04223 10.832 8.15629 10.7658 8.24943C10.6996 8.34258 10.6018 8.40842 10.4906 8.43465C10.3793 8.46088 10.2624 8.44571 10.1616 8.39196C9.33156 7.94596 7.72156 7.16996 6.25556 6.97196H5.85556H4.20156V2.39996ZM6.85356 10.974C7.20069 10.9925 7.5354 11.1093 7.81867 11.3108C8.10195 11.5123 8.32214 11.7901 8.45356 12.112L7.08156 12.346L6.85356 10.974ZM17.1676 10.636C17.1858 10.2885 17.3027 9.9534 17.5047 9.67001C17.7066 9.38663 17.9851 9.16668 18.3076 9.03596L18.5396 10.4L17.1676 10.636Z" fill="#585858"/>
<path d="M18.1616 3.38396C18.1435 3.27989 18.0849 3.18721 17.9988 3.12614C17.9126 3.06506 17.8057 3.04055 17.7016 3.05796L14.4516 3.59996C13.8196 3.16796 11.0516 1.30596 9.49156 0.897959C7.86756 0.479959 5.73756 1.39996 5.27956 1.59996H4.20156V1.19996C4.20156 1.09387 4.15942 0.992131 4.08441 0.917116C4.00939 0.842102 3.90765 0.799959 3.80156 0.799959H1.00156C0.895476 0.799959 0.793734 0.842102 0.71872 0.917116C0.643705 0.992131 0.601563 1.09387 0.601562 1.19996V8.08596C0.601563 8.19205 0.643705 8.29379 0.71872 8.3688C0.793734 8.44382 0.895476 8.48596 1.00156 8.48596H3.80156C3.90765 8.48596 4.00939 8.44382 4.08441 8.3688C4.15942 8.29379 4.20156 8.19205 4.20156 8.08596V7.77596H5.50356L6.36756 12.874C6.38375 12.9679 6.43295 13.0529 6.50628 13.1138C6.57961 13.1747 6.67227 13.2073 6.76756 13.206H6.83556L19.0676 11.126C19.12 11.1179 19.1703 11.0996 19.2156 11.0719C19.2609 11.0443 19.3002 11.0079 19.3313 10.9649C19.3624 10.9219 19.3846 10.8732 19.3967 10.8215C19.4087 10.7698 19.4104 10.7163 19.4016 10.664L18.1616 3.38396ZM16.3616 10.772L9.25156 11.972C9.07603 11.4399 8.73471 10.9781 8.27761 10.6542C7.82052 10.3303 7.27169 10.1613 6.71156 10.172L6.31556 7.79996C7.61156 8.01596 9.02956 8.70196 9.77956 9.10396C9.92929 9.18578 10.0941 9.23634 10.2639 9.25257C10.4338 9.2688 10.6052 9.25036 10.7677 9.19837C10.9302 9.14638 11.0805 9.06192 11.2094 8.95012C11.3383 8.83831 11.4431 8.7015 11.5176 8.54796C11.6606 8.59823 11.8139 8.61198 11.9636 8.58796L12.6956 8.46396C12.7092 8.46138 12.7233 8.46157 12.7369 8.46453C12.7505 8.46748 12.7634 8.47313 12.7748 8.48115C12.7861 8.48917 12.7958 8.4994 12.8031 8.51122C12.8105 8.52303 12.8154 8.53621 12.8176 8.54996L12.9076 9.07796C12.9122 9.10553 12.9058 9.13381 12.8897 9.15666C12.8736 9.17951 12.8491 9.19507 12.8216 9.19996L12.4556 9.26196L12.0896 9.32396C12.062 9.32861 12.0337 9.32218 12.0109 9.30607C11.988 9.28997 11.9724 9.26548 11.9676 9.23796C11.9607 9.18447 11.9432 9.13291 11.9159 9.08638C11.8886 9.03986 11.8522 8.99933 11.8089 8.96722C11.7656 8.93512 11.7162 8.91211 11.6638 8.89957C11.6113 8.88703 11.5569 8.88523 11.5037 8.89427C11.4506 8.90331 11.3998 8.92301 11.3544 8.95218C11.3091 8.98134 11.2701 9.01938 11.2398 9.064C11.2095 9.10862 11.1886 9.15891 11.1782 9.21183C11.1679 9.26475 11.1683 9.31922 11.1796 9.37196C11.2154 9.58266 11.3246 9.77391 11.4878 9.91188C11.6511 10.0499 11.8578 10.1257 12.0716 10.126C12.1125 10.1249 12.1532 10.1209 12.1936 10.114L12.2216 10.28C12.2378 10.3739 12.2869 10.4589 12.3603 10.5198C12.4336 10.5807 12.5263 10.6133 12.6216 10.612H12.6896C12.794 10.5943 12.8872 10.536 12.9487 10.4498C13.0101 10.3635 13.0349 10.2564 13.0176 10.152L12.9896 9.98596C13.2195 9.93939 13.4223 9.80529 13.5551 9.61197C13.688 9.41866 13.7405 9.18127 13.7016 8.94996L13.6016 8.41396C13.5614 8.17769 13.4291 7.96702 13.2338 7.82825C13.0384 7.68949 12.7959 7.63399 12.5596 7.67396L11.8296 7.79996C11.8023 7.80323 11.7747 7.79686 11.7516 7.78196C11.7294 7.7655 11.7144 7.74116 11.7096 7.71396L11.6196 7.18396C11.6171 7.17042 11.6175 7.15652 11.6206 7.14312C11.6237 7.12971 11.6295 7.11707 11.6376 7.10596C11.6455 7.09474 11.6556 7.08524 11.6673 7.07802C11.679 7.0708 11.692 7.06602 11.7056 7.06396L12.0716 6.99996L12.4356 6.93796C12.4491 6.93542 12.463 6.93572 12.4764 6.93881C12.4899 6.94191 12.5025 6.94775 12.5136 6.95596C12.5255 6.9633 12.5356 6.97321 12.5433 6.98498C12.5509 6.99674 12.5558 7.01006 12.5576 7.02396C12.5644 7.07745 12.582 7.12901 12.6092 7.17553C12.6365 7.22206 12.6729 7.26259 12.7162 7.2947C12.7595 7.3268 12.8089 7.34981 12.8614 7.36235C12.9138 7.37488 12.9682 7.37669 13.0214 7.36765C13.0746 7.35861 13.1253 7.33891 13.1707 7.30974C13.2161 7.28057 13.255 7.24254 13.2853 7.19792C13.3156 7.15329 13.3366 7.10301 13.3469 7.05009C13.3573 6.99717 13.3568 6.9427 13.3456 6.88996C13.3062 6.65858 13.1784 6.45157 12.9891 6.31273C12.7999 6.17388 12.5641 6.11407 12.3316 6.14596L12.3036 5.98196C12.2948 5.92943 12.2757 5.87915 12.2475 5.83399C12.2192 5.78882 12.1824 5.74966 12.139 5.71874C12.0957 5.68782 12.0466 5.66574 11.9947 5.65377C11.9428 5.64179 11.8891 5.64016 11.8366 5.64896C11.784 5.65776 11.7338 5.67682 11.6886 5.70505C11.6434 5.73328 11.6043 5.77013 11.5733 5.81349C11.5109 5.90107 11.4858 6.00987 11.5036 6.11596L11.5316 6.27996C11.306 6.32456 11.1062 6.45417 10.9736 6.64196C10.9451 6.6823 10.9203 6.72515 10.8996 6.76996C10.1917 6.22489 9.42 5.76818 8.60156 5.40996L15.2596 4.28196C15.4343 4.80544 15.7691 5.26081 16.2165 5.58379C16.664 5.90676 17.2017 6.08102 17.7536 6.08196H17.8016L18.1636 8.22596C17.6314 8.40122 17.1694 8.74247 16.8454 9.19963C16.5214 9.65678 16.3526 10.2058 16.3636 10.766L16.3616 10.772ZM17.6676 5.28596C17.3201 5.26771 16.985 5.15078 16.7016 4.94887C16.4182 4.74695 16.1983 4.46843 16.0676 4.14596L17.4396 3.91196L17.6676 5.28596ZM3.40156 7.68596H1.40156V1.59996H3.40156V7.68596ZM4.20156 2.39996H5.37356C5.43384 2.39991 5.49332 2.38623 5.54756 2.35996C5.56956 2.34996 7.78756 1.28396 9.29356 1.67996C10.3756 1.96596 12.2316 3.10796 13.3016 3.79996L7.10156 4.85196C7.01637 4.85187 6.93338 4.87898 6.86467 4.92934C6.79596 4.97971 6.74512 5.05069 6.71956 5.13196C6.68832 5.23327 6.69858 5.34284 6.74808 5.4366C6.79758 5.53035 6.88228 5.60062 6.98356 5.63196C7.00756 5.63196 9.29156 6.35196 10.7016 7.63196C10.7855 7.70949 10.8383 7.81494 10.8501 7.92858C10.862 8.04223 10.832 8.15629 10.7658 8.24943C10.6996 8.34258 10.6018 8.40842 10.4906 8.43465C10.3793 8.46088 10.2624 8.44571 10.1616 8.39196C9.33156 7.94596 7.72156 7.16996 6.25556 6.97196H5.85556H4.20156V2.39996ZM6.85356 10.974C7.20069 10.9925 7.5354 11.1093 7.81867 11.3108C8.10195 11.5123 8.32214 11.7901 8.45356 12.112L7.08156 12.346L6.85356 10.974ZM17.1676 10.636C17.1858 10.2885 17.3027 9.9534 17.5047 9.67001C17.7066 9.38663 17.9851 9.16668 18.3076 9.03596L18.5396 10.4L17.1676 10.636Z" fill="black" fill-opacity="0.2"/>
</svg>
