<svg width="24" height="24" viewBox="0 0 24 24" fill="none" xmlns="http://www.w3.org/2000/svg">
<g clip-path="url(#clip0_40_4008)">
<path d="M11.5934 22.6248H5.33366C3.63247 22.6248 2.25217 21.2394 2.25217 19.5433V4.45671C2.25217 2.75552 3.63756 1.37521 5.33366 1.37521H11.6953C12.0773 1.37521 12.3829 1.06961 12.3829 0.687606C12.3829 0.305603 12.0773 0 11.6953 0H5.33366C2.87356 0 0.876953 2.0017 0.876953 4.45671V19.5433C0.876953 22.0034 2.87865 24 5.33366 24H11.5934C11.9754 24 12.281 23.6944 12.281 23.3124C12.281 22.9304 11.9703 22.6248 11.5934 22.6248Z" fill="black"/>
<path d="M22.9214 11.5162L18.5512 7.14607C18.2813 6.87612 17.8483 6.87612 17.5784 7.14607C17.3085 7.41601 17.3085 7.84895 17.5784 8.1189L20.777 11.3175H6.82628C6.44427 11.3175 6.13867 11.6231 6.13867 12.0051C6.13867 12.3872 6.44427 12.6928 6.82628 12.6928H20.777L17.5784 15.8914C17.3085 16.1613 17.3085 16.5943 17.5784 16.8642C17.7108 16.9967 17.8891 17.068 18.0623 17.068C18.2354 17.068 18.4137 17.0018 18.5461 16.8642L22.9163 12.4941C23.1913 12.2191 23.1913 11.781 22.9214 11.5162Z" fill="black"/>
</g>
<defs>
<clipPath id="clip0_40_4008">
<rect width="24" height="24" fill="white"/>
</clipPath>
</defs>
</svg>
