<svg width="14" height="12" viewBox="0 0 14 12" fill="none" xmlns="http://www.w3.org/2000/svg">
<path d="M5.86971 2.81324C6.29776 1.74612 6.51178 1.21256 6.8595 1.13861C6.95093 1.11916 7.04543 1.11916 7.13686 1.13861C7.48458 1.21256 7.6986 1.74612 8.12665 2.81324C8.37007 3.4201 8.49178 3.72352 8.71953 3.9299C8.7834 3.98779 8.85275 4.03934 8.92658 4.08384C9.1898 4.24249 9.5184 4.27192 10.1756 4.33078C11.2881 4.43041 11.8444 4.48023 12.0142 4.79739C12.0494 4.86308 12.0733 4.9342 12.085 5.00779C12.1413 5.36315 11.7324 5.73519 10.9145 6.47927L10.6874 6.68589C10.305 7.03376 10.1138 7.2077 10.0033 7.42477C9.93693 7.55498 9.89245 7.69521 9.87161 7.83985C9.83687 8.08098 9.89286 8.3333 10.0048 8.83796L10.0448 9.01827C10.2456 9.92329 10.346 10.3758 10.2207 10.5982C10.1081 10.798 9.90076 10.9259 9.67169 10.9369C9.41668 10.949 9.05735 10.6562 8.3387 10.0707C7.86523 9.68484 7.62849 9.49193 7.36569 9.41658C7.12552 9.34771 6.87084 9.34771 6.63067 9.41658C6.36786 9.49193 6.13113 9.68484 5.65766 10.0707C4.93901 10.6562 4.57968 10.949 4.32467 10.9369C4.0956 10.9259 3.88824 10.798 3.77566 10.5982C3.65033 10.3758 3.75073 9.92329 3.95153 9.01827L3.99153 8.83796C4.1035 8.3333 4.15948 8.08098 4.12474 7.83985C4.1039 7.69521 4.05942 7.55498 3.99309 7.42477C3.88251 7.2077 3.69133 7.03376 3.30896 6.68589L3.08185 6.47927C2.26399 5.73519 1.85506 5.36314 1.91138 5.00779C1.92304 4.9342 1.94696 4.86308 1.98214 4.79739C2.15201 4.48023 2.70826 4.43041 3.82077 4.33078C4.47796 4.27192 4.80655 4.24249 5.06978 4.08384C5.14361 4.03934 5.21295 3.98779 5.27683 3.9299C5.50457 3.72352 5.62628 3.4201 5.86971 2.81324Z" fill="#F5A200" stroke="#F5A200" stroke-width="2"/>
</svg>
